<mxfile host="www.draw.io" modified="2020-01-07T02:29:10.990Z" agent="Mozilla/5.0 (Windows NT 10.0; WOW64) AppleWebKit/537.36 (KHTML, like Gecko) Chrome/65.0.3325.181 Safari/537.36" etag="YOLLx8uG80T8fo8w7nXN" version="12.4.9" type="github">
  <diagram id="qbF92hfEgeoPUX4xhK2h" name="Page-1">
    <mxGraphModel dx="2723" dy="-1604" grid="1" gridSize="10" guides="1" tooltips="1" connect="1" arrows="1" fold="1" page="1" pageScale="1" pageWidth="827" pageHeight="1169" math="0" shadow="0">
      <root>
        <mxCell id="0"/>
        <mxCell id="1" parent="0"/>
        <mxCell id="AtQHAulMX-eyT-m-HNgf-1" value="连续加法器" style="text;html=1;resizable=0;autosize=1;align=center;verticalAlign=middle;points=[];fillColor=#dae8fc;strokeColor=#6c8ebf;rounded=0;fontSize=23;horizontal=1;fontStyle=1" parent="1" vertex="1">
          <mxGeometry x="847" y="4130" width="130" height="30" as="geometry"/>
        </mxCell>
        <mxCell id="AtQHAulMX-eyT-m-HNgf-2" value="" style="group;fontSize=19;" parent="1" vertex="1" connectable="0">
          <mxGeometry x="1040" y="4040" width="460" height="280" as="geometry"/>
        </mxCell>
        <mxCell id="AtQHAulMX-eyT-m-HNgf-3" value="" style="group;fontSize=19;" parent="AtQHAulMX-eyT-m-HNgf-2" vertex="1" connectable="0">
          <mxGeometry width="459.99999999999994" height="280" as="geometry"/>
        </mxCell>
        <mxCell id="AtQHAulMX-eyT-m-HNgf-4" value="" style="group;fontSize=19;" parent="AtQHAulMX-eyT-m-HNgf-3" vertex="1" connectable="0">
          <mxGeometry width="459.99999999999994" height="280" as="geometry"/>
        </mxCell>
        <mxCell id="AtQHAulMX-eyT-m-HNgf-5" value="" style="rounded=0;whiteSpace=wrap;html=1;strokeColor=#000000;strokeWidth=1;fillColor=none;fontSize=19;align=center;" parent="AtQHAulMX-eyT-m-HNgf-4" vertex="1">
          <mxGeometry width="459.99999999999994" height="280" as="geometry"/>
        </mxCell>
        <mxCell id="AtQHAulMX-eyT-m-HNgf-6" style="edgeStyle=orthogonalEdgeStyle;rounded=1;orthogonalLoop=1;jettySize=auto;html=1;exitX=1;exitY=0.5;exitDx=0;exitDy=0;endArrow=none;endFill=0;fontSize=19;" parent="AtQHAulMX-eyT-m-HNgf-4" source="AtQHAulMX-eyT-m-HNgf-8" edge="1">
          <mxGeometry relative="1" as="geometry">
            <mxPoint x="408.88888888888886" y="53.33333333333333" as="targetPoint"/>
          </mxGeometry>
        </mxCell>
        <mxCell id="AtQHAulMX-eyT-m-HNgf-7" style="edgeStyle=orthogonalEdgeStyle;rounded=1;orthogonalLoop=1;jettySize=auto;html=1;exitX=0;exitY=0.5;exitDx=0;exitDy=0;endArrow=none;endFill=0;fontSize=19;" parent="AtQHAulMX-eyT-m-HNgf-4" source="AtQHAulMX-eyT-m-HNgf-8" edge="1">
          <mxGeometry relative="1" as="geometry">
            <mxPoint x="51.11111111111111" y="240" as="targetPoint"/>
          </mxGeometry>
        </mxCell>
        <mxCell id="AtQHAulMX-eyT-m-HNgf-8" value="&lt;b style=&quot;font-size: 19px;&quot;&gt;8位加法器&lt;/b&gt;" style="rounded=0;whiteSpace=wrap;html=1;strokeColor=#000000;strokeWidth=1;fillColor=none;fontSize=19;align=center;" parent="AtQHAulMX-eyT-m-HNgf-4" vertex="1">
          <mxGeometry x="76.66666666666666" y="108" width="306.66666666666663" height="78.66666666666666" as="geometry"/>
        </mxCell>
        <mxCell id="AtQHAulMX-eyT-m-HNgf-9" value="" style="endArrow=none;html=1;fontSize=19;" parent="AtQHAulMX-eyT-m-HNgf-4" edge="1">
          <mxGeometry width="50" height="50" relative="1" as="geometry">
            <mxPoint x="89.44444444444444" y="106.66666666666666" as="sourcePoint"/>
            <mxPoint x="89.44444444444444" y="53.33333333333333" as="targetPoint"/>
          </mxGeometry>
        </mxCell>
        <mxCell id="AtQHAulMX-eyT-m-HNgf-10" value="" style="endArrow=none;html=1;fontSize=19;" parent="AtQHAulMX-eyT-m-HNgf-4" edge="1">
          <mxGeometry width="50" height="50" relative="1" as="geometry">
            <mxPoint x="102.22222222222221" y="106.66666666666666" as="sourcePoint"/>
            <mxPoint x="102.22222222222221" y="53.33333333333333" as="targetPoint"/>
          </mxGeometry>
        </mxCell>
        <mxCell id="AtQHAulMX-eyT-m-HNgf-11" value="" style="endArrow=none;html=1;fontSize=19;" parent="AtQHAulMX-eyT-m-HNgf-4" edge="1">
          <mxGeometry width="50" height="50" relative="1" as="geometry">
            <mxPoint x="114.99999999999999" y="106.66666666666666" as="sourcePoint"/>
            <mxPoint x="114.99999999999999" y="53.33333333333333" as="targetPoint"/>
          </mxGeometry>
        </mxCell>
        <mxCell id="AtQHAulMX-eyT-m-HNgf-12" value="" style="endArrow=none;html=1;fontSize=19;" parent="AtQHAulMX-eyT-m-HNgf-4" edge="1">
          <mxGeometry width="50" height="50" relative="1" as="geometry">
            <mxPoint x="127.77777777777777" y="106.66666666666666" as="sourcePoint"/>
            <mxPoint x="127.77777777777777" y="53.33333333333333" as="targetPoint"/>
          </mxGeometry>
        </mxCell>
        <mxCell id="AtQHAulMX-eyT-m-HNgf-13" value="" style="endArrow=none;html=1;fontSize=19;" parent="AtQHAulMX-eyT-m-HNgf-4" edge="1">
          <mxGeometry width="50" height="50" relative="1" as="geometry">
            <mxPoint x="140.55555555555554" y="106.66666666666666" as="sourcePoint"/>
            <mxPoint x="140.55555555555554" y="53.33333333333333" as="targetPoint"/>
          </mxGeometry>
        </mxCell>
        <mxCell id="AtQHAulMX-eyT-m-HNgf-14" value="" style="endArrow=none;html=1;fontSize=19;" parent="AtQHAulMX-eyT-m-HNgf-4" edge="1">
          <mxGeometry width="50" height="50" relative="1" as="geometry">
            <mxPoint x="153.33333333333331" y="106.66666666666666" as="sourcePoint"/>
            <mxPoint x="153.33333333333331" y="53.33333333333333" as="targetPoint"/>
          </mxGeometry>
        </mxCell>
        <mxCell id="AtQHAulMX-eyT-m-HNgf-15" value="" style="endArrow=none;html=1;fontSize=19;" parent="AtQHAulMX-eyT-m-HNgf-4" edge="1">
          <mxGeometry width="50" height="50" relative="1" as="geometry">
            <mxPoint x="166.1111111111111" y="106.66666666666666" as="sourcePoint"/>
            <mxPoint x="166.1111111111111" y="53.33333333333333" as="targetPoint"/>
          </mxGeometry>
        </mxCell>
        <mxCell id="AtQHAulMX-eyT-m-HNgf-16" value="" style="endArrow=none;html=1;fontSize=19;" parent="AtQHAulMX-eyT-m-HNgf-4" edge="1">
          <mxGeometry width="50" height="50" relative="1" as="geometry">
            <mxPoint x="178.88888888888889" y="106.66666666666666" as="sourcePoint"/>
            <mxPoint x="178.88888888888889" y="53.33333333333333" as="targetPoint"/>
          </mxGeometry>
        </mxCell>
        <mxCell id="AtQHAulMX-eyT-m-HNgf-17" value="" style="endArrow=none;html=1;fontSize=19;" parent="AtQHAulMX-eyT-m-HNgf-4" edge="1">
          <mxGeometry width="50" height="50" relative="1" as="geometry">
            <mxPoint x="281.1111111111111" y="108" as="sourcePoint"/>
            <mxPoint x="281.1111111111111" y="54.666666666666664" as="targetPoint"/>
          </mxGeometry>
        </mxCell>
        <mxCell id="AtQHAulMX-eyT-m-HNgf-18" value="" style="endArrow=none;html=1;fontSize=19;" parent="AtQHAulMX-eyT-m-HNgf-4" edge="1">
          <mxGeometry width="50" height="50" relative="1" as="geometry">
            <mxPoint x="293.88888888888886" y="108" as="sourcePoint"/>
            <mxPoint x="293.88888888888886" y="54.666666666666664" as="targetPoint"/>
          </mxGeometry>
        </mxCell>
        <mxCell id="AtQHAulMX-eyT-m-HNgf-19" value="" style="endArrow=none;html=1;fontSize=19;" parent="AtQHAulMX-eyT-m-HNgf-4" edge="1">
          <mxGeometry width="50" height="50" relative="1" as="geometry">
            <mxPoint x="306.66666666666663" y="108" as="sourcePoint"/>
            <mxPoint x="306.66666666666663" y="54.666666666666664" as="targetPoint"/>
          </mxGeometry>
        </mxCell>
        <mxCell id="AtQHAulMX-eyT-m-HNgf-20" value="" style="endArrow=none;html=1;fontSize=19;" parent="AtQHAulMX-eyT-m-HNgf-4" edge="1">
          <mxGeometry width="50" height="50" relative="1" as="geometry">
            <mxPoint x="319.4444444444444" y="108" as="sourcePoint"/>
            <mxPoint x="319.4444444444444" y="54.666666666666664" as="targetPoint"/>
          </mxGeometry>
        </mxCell>
        <mxCell id="AtQHAulMX-eyT-m-HNgf-21" value="" style="endArrow=none;html=1;fontSize=19;" parent="AtQHAulMX-eyT-m-HNgf-4" edge="1">
          <mxGeometry width="50" height="50" relative="1" as="geometry">
            <mxPoint x="332.2222222222222" y="108" as="sourcePoint"/>
            <mxPoint x="332.2222222222222" y="54.666666666666664" as="targetPoint"/>
          </mxGeometry>
        </mxCell>
        <mxCell id="AtQHAulMX-eyT-m-HNgf-22" value="" style="endArrow=none;html=1;fontSize=19;" parent="AtQHAulMX-eyT-m-HNgf-4" edge="1">
          <mxGeometry width="50" height="50" relative="1" as="geometry">
            <mxPoint x="345" y="108" as="sourcePoint"/>
            <mxPoint x="345" y="54.666666666666664" as="targetPoint"/>
          </mxGeometry>
        </mxCell>
        <mxCell id="AtQHAulMX-eyT-m-HNgf-23" value="" style="endArrow=none;html=1;fontSize=19;" parent="AtQHAulMX-eyT-m-HNgf-4" edge="1">
          <mxGeometry width="50" height="50" relative="1" as="geometry">
            <mxPoint x="357.77777777777777" y="108" as="sourcePoint"/>
            <mxPoint x="357.77777777777777" y="54.666666666666664" as="targetPoint"/>
          </mxGeometry>
        </mxCell>
        <mxCell id="AtQHAulMX-eyT-m-HNgf-24" value="" style="endArrow=none;html=1;fontSize=19;" parent="AtQHAulMX-eyT-m-HNgf-4" edge="1">
          <mxGeometry width="50" height="50" relative="1" as="geometry">
            <mxPoint x="370.55555555555554" y="108" as="sourcePoint"/>
            <mxPoint x="370.55555555555554" y="54.666666666666664" as="targetPoint"/>
          </mxGeometry>
        </mxCell>
        <mxCell id="AtQHAulMX-eyT-m-HNgf-25" value="" style="endArrow=none;html=1;fontSize=19;" parent="AtQHAulMX-eyT-m-HNgf-4" edge="1">
          <mxGeometry width="50" height="50" relative="1" as="geometry">
            <mxPoint x="217.2222222222222" y="239.33333333333331" as="sourcePoint"/>
            <mxPoint x="217.2222222222222" y="186" as="targetPoint"/>
          </mxGeometry>
        </mxCell>
        <mxCell id="AtQHAulMX-eyT-m-HNgf-26" value="" style="endArrow=none;html=1;fontSize=19;" parent="AtQHAulMX-eyT-m-HNgf-4" edge="1">
          <mxGeometry width="50" height="50" relative="1" as="geometry">
            <mxPoint x="242.77777777777777" y="239.33333333333331" as="sourcePoint"/>
            <mxPoint x="242.77777777777777" y="186" as="targetPoint"/>
          </mxGeometry>
        </mxCell>
        <mxCell id="AtQHAulMX-eyT-m-HNgf-27" value="" style="endArrow=none;html=1;fontSize=19;" parent="AtQHAulMX-eyT-m-HNgf-4" edge="1">
          <mxGeometry width="50" height="50" relative="1" as="geometry">
            <mxPoint x="268.3333333333333" y="240" as="sourcePoint"/>
            <mxPoint x="268.3333333333333" y="186.66666666666666" as="targetPoint"/>
          </mxGeometry>
        </mxCell>
        <mxCell id="AtQHAulMX-eyT-m-HNgf-28" value="" style="endArrow=none;html=1;fontSize=19;" parent="AtQHAulMX-eyT-m-HNgf-4" edge="1">
          <mxGeometry width="50" height="50" relative="1" as="geometry">
            <mxPoint x="293.88888888888886" y="240" as="sourcePoint"/>
            <mxPoint x="293.88888888888886" y="186.66666666666666" as="targetPoint"/>
          </mxGeometry>
        </mxCell>
        <mxCell id="AtQHAulMX-eyT-m-HNgf-29" value="" style="endArrow=none;html=1;fontSize=19;" parent="AtQHAulMX-eyT-m-HNgf-4" edge="1">
          <mxGeometry width="50" height="50" relative="1" as="geometry">
            <mxPoint x="166.1111111111111" y="240" as="sourcePoint"/>
            <mxPoint x="166.1111111111111" y="186.66666666666666" as="targetPoint"/>
          </mxGeometry>
        </mxCell>
        <mxCell id="AtQHAulMX-eyT-m-HNgf-30" value="" style="endArrow=none;html=1;fontSize=19;" parent="AtQHAulMX-eyT-m-HNgf-4" edge="1">
          <mxGeometry width="50" height="50" relative="1" as="geometry">
            <mxPoint x="191.66666666666666" y="240" as="sourcePoint"/>
            <mxPoint x="191.66666666666666" y="186.66666666666666" as="targetPoint"/>
          </mxGeometry>
        </mxCell>
        <mxCell id="AtQHAulMX-eyT-m-HNgf-31" value="" style="endArrow=none;html=1;fontSize=19;" parent="AtQHAulMX-eyT-m-HNgf-4" edge="1">
          <mxGeometry width="50" height="50" relative="1" as="geometry">
            <mxPoint x="140.55555555555554" y="240" as="sourcePoint"/>
            <mxPoint x="140.55555555555554" y="186.66666666666666" as="targetPoint"/>
          </mxGeometry>
        </mxCell>
        <mxCell id="AtQHAulMX-eyT-m-HNgf-32" value="" style="endArrow=none;html=1;fontSize=19;" parent="AtQHAulMX-eyT-m-HNgf-4" edge="1">
          <mxGeometry width="50" height="50" relative="1" as="geometry">
            <mxPoint x="319.4444444444444" y="240" as="sourcePoint"/>
            <mxPoint x="319.4444444444444" y="186.66666666666666" as="targetPoint"/>
          </mxGeometry>
        </mxCell>
        <mxCell id="AtQHAulMX-eyT-m-HNgf-33" value="加数1" style="text;html=1;resizable=0;autosize=1;align=center;verticalAlign=middle;points=[];fillColor=none;strokeColor=none;rounded=0;fontSize=19;" parent="AtQHAulMX-eyT-m-HNgf-4" vertex="1">
          <mxGeometry x="92.22222222222221" y="17.666666666666664" width="60" height="30" as="geometry"/>
        </mxCell>
        <mxCell id="AtQHAulMX-eyT-m-HNgf-34" value="加数2" style="text;html=1;resizable=0;autosize=1;align=center;verticalAlign=middle;points=[];fillColor=none;strokeColor=none;rounded=0;fontSize=19;" parent="AtQHAulMX-eyT-m-HNgf-4" vertex="1">
          <mxGeometry x="296.66666666666663" y="17.666666666666664" width="60" height="30" as="geometry"/>
        </mxCell>
        <mxCell id="AtQHAulMX-eyT-m-HNgf-35" value="进位值&lt;br style=&quot;font-size: 19px;&quot;&gt;默认为0" style="text;html=1;resizable=0;autosize=1;align=center;verticalAlign=middle;points=[];fillColor=none;strokeColor=none;rounded=0;fontSize=19;" parent="AtQHAulMX-eyT-m-HNgf-4" vertex="1">
          <mxGeometry x="361.9444444444444" y="6" width="80" height="50" as="geometry"/>
        </mxCell>
        <mxCell id="AtQHAulMX-eyT-m-HNgf-36" value="计算结果" style="text;html=1;resizable=0;autosize=1;align=center;verticalAlign=middle;points=[];fillColor=none;strokeColor=none;rounded=0;fontSize=19;" parent="AtQHAulMX-eyT-m-HNgf-4" vertex="1">
          <mxGeometry x="176.66666666666666" y="234.33333333333331" width="90" height="30" as="geometry"/>
        </mxCell>
        <mxCell id="AtQHAulMX-eyT-m-HNgf-37" value="第9位数" style="text;html=1;resizable=0;autosize=1;align=center;verticalAlign=middle;points=[];fillColor=none;strokeColor=none;rounded=0;fontSize=19;" parent="AtQHAulMX-eyT-m-HNgf-4" vertex="1">
          <mxGeometry x="4.166666666666664" y="234.33333333333331" width="80" height="30" as="geometry"/>
        </mxCell>
        <mxCell id="AtQHAulMX-eyT-m-HNgf-38" value="" style="shape=flexArrow;endArrow=classic;html=1;fontSize=19;fontColor=#000000;" parent="1" edge="1">
          <mxGeometry width="50" height="50" relative="1" as="geometry">
            <mxPoint x="1500" y="4200" as="sourcePoint"/>
            <mxPoint x="1570" y="4200" as="targetPoint"/>
          </mxGeometry>
        </mxCell>
        <mxCell id="AtQHAulMX-eyT-m-HNgf-39" value="" style="group" parent="1" vertex="1" connectable="0">
          <mxGeometry x="1624" y="4015" width="420" height="330" as="geometry"/>
        </mxCell>
        <mxCell id="AtQHAulMX-eyT-m-HNgf-40" value="" style="group" parent="AtQHAulMX-eyT-m-HNgf-39" vertex="1" connectable="0">
          <mxGeometry x="160" width="140" height="330" as="geometry"/>
        </mxCell>
        <mxCell id="AtQHAulMX-eyT-m-HNgf-41" value="" style="group" parent="AtQHAulMX-eyT-m-HNgf-40" vertex="1" connectable="0">
          <mxGeometry width="140" height="330" as="geometry"/>
        </mxCell>
        <mxCell id="AtQHAulMX-eyT-m-HNgf-42" value="" style="endArrow=none;html=1;fontSize=19;fontColor=#000000;" parent="AtQHAulMX-eyT-m-HNgf-41" edge="1">
          <mxGeometry width="50" height="50" relative="1" as="geometry">
            <mxPoint x="140" y="264" as="sourcePoint"/>
            <mxPoint x="140" y="66" as="targetPoint"/>
          </mxGeometry>
        </mxCell>
        <mxCell id="AtQHAulMX-eyT-m-HNgf-43" value="" style="endArrow=none;html=1;fontSize=19;fontColor=#000000;" parent="AtQHAulMX-eyT-m-HNgf-41" edge="1">
          <mxGeometry width="50" height="50" relative="1" as="geometry">
            <mxPoint x="140" y="66" as="sourcePoint"/>
            <mxPoint as="targetPoint"/>
          </mxGeometry>
        </mxCell>
        <mxCell id="AtQHAulMX-eyT-m-HNgf-44" value="" style="endArrow=none;html=1;fontSize=19;fontColor=#000000;" parent="AtQHAulMX-eyT-m-HNgf-41" edge="1">
          <mxGeometry width="50" height="50" relative="1" as="geometry">
            <mxPoint x="140" y="264" as="sourcePoint"/>
            <mxPoint y="330" as="targetPoint"/>
          </mxGeometry>
        </mxCell>
        <mxCell id="AtQHAulMX-eyT-m-HNgf-45" value="" style="endArrow=none;html=1;fontSize=19;fontColor=#000000;" parent="AtQHAulMX-eyT-m-HNgf-41" edge="1">
          <mxGeometry width="50" height="50" relative="1" as="geometry">
            <mxPoint x="69.125" y="198" as="sourcePoint"/>
            <mxPoint x="69.37874999999997" y="132" as="targetPoint"/>
          </mxGeometry>
        </mxCell>
        <mxCell id="AtQHAulMX-eyT-m-HNgf-46" value="" style="endArrow=none;html=1;fontSize=19;fontColor=#000000;" parent="AtQHAulMX-eyT-m-HNgf-41" edge="1">
          <mxGeometry width="50" height="50" relative="1" as="geometry">
            <mxPoint y="90.75" as="sourcePoint"/>
            <mxPoint x="70" y="132" as="targetPoint"/>
          </mxGeometry>
        </mxCell>
        <mxCell id="AtQHAulMX-eyT-m-HNgf-47" value="" style="endArrow=none;html=1;fontSize=19;fontColor=#000000;" parent="AtQHAulMX-eyT-m-HNgf-41" edge="1">
          <mxGeometry width="50" height="50" relative="1" as="geometry">
            <mxPoint y="90.75" as="sourcePoint"/>
            <mxPoint as="targetPoint"/>
          </mxGeometry>
        </mxCell>
        <mxCell id="AtQHAulMX-eyT-m-HNgf-48" value="" style="endArrow=none;html=1;fontSize=19;fontColor=#000000;" parent="AtQHAulMX-eyT-m-HNgf-41" edge="1">
          <mxGeometry width="50" height="50" relative="1" as="geometry">
            <mxPoint x="1.3125" y="330" as="sourcePoint"/>
            <mxPoint x="1.3125" y="239.25" as="targetPoint"/>
          </mxGeometry>
        </mxCell>
        <mxCell id="AtQHAulMX-eyT-m-HNgf-49" value="" style="endArrow=none;html=1;fontSize=19;fontColor=#000000;" parent="AtQHAulMX-eyT-m-HNgf-41" edge="1">
          <mxGeometry width="50" height="50" relative="1" as="geometry">
            <mxPoint x="70" y="198" as="sourcePoint"/>
            <mxPoint y="239.25" as="targetPoint"/>
          </mxGeometry>
        </mxCell>
        <mxCell id="AtQHAulMX-eyT-m-HNgf-50" value="&lt;font style=&quot;font-size: 36px&quot;&gt;加&lt;br&gt;法&lt;br&gt;器&lt;/font&gt;" style="text;html=1;align=center;verticalAlign=middle;resizable=0;points=[];autosize=1;fontSize=19;fontColor=#000000;" parent="AtQHAulMX-eyT-m-HNgf-41" vertex="1">
          <mxGeometry x="80" y="110" width="50" height="90" as="geometry"/>
        </mxCell>
        <mxCell id="AtQHAulMX-eyT-m-HNgf-51" value="" style="group" parent="AtQHAulMX-eyT-m-HNgf-39" vertex="1" connectable="0">
          <mxGeometry x="80" y="5" width="78" height="81" as="geometry"/>
        </mxCell>
        <mxCell id="AtQHAulMX-eyT-m-HNgf-52" value="" style="verticalLabelPosition=bottom;shadow=0;dashed=0;align=center;html=1;verticalAlign=top;shape=mxgraph.electrical.transmission.4_line_bus;fillColor=none;fontSize=19;fontColor=#000000;" parent="AtQHAulMX-eyT-m-HNgf-51" vertex="1">
          <mxGeometry x="2" width="76" height="60" as="geometry"/>
        </mxCell>
        <mxCell id="AtQHAulMX-eyT-m-HNgf-53" value="" style="verticalLabelPosition=bottom;shadow=0;dashed=0;align=center;html=1;verticalAlign=top;shape=mxgraph.electrical.transmission.bus_width;pointerEvents=1;fillColor=none;fontSize=19;fontColor=#000000;" parent="AtQHAulMX-eyT-m-HNgf-51" vertex="1">
          <mxGeometry y="80" width="78" height="1" as="geometry"/>
        </mxCell>
        <mxCell id="AtQHAulMX-eyT-m-HNgf-54" value="" style="group" parent="AtQHAulMX-eyT-m-HNgf-39" vertex="1" connectable="0">
          <mxGeometry x="80" y="245" width="78" height="81" as="geometry"/>
        </mxCell>
        <mxCell id="AtQHAulMX-eyT-m-HNgf-55" value="" style="verticalLabelPosition=bottom;shadow=0;dashed=0;align=center;html=1;verticalAlign=top;shape=mxgraph.electrical.transmission.4_line_bus;fillColor=none;fontSize=19;fontColor=#000000;" parent="AtQHAulMX-eyT-m-HNgf-54" vertex="1">
          <mxGeometry x="2" width="76" height="60" as="geometry"/>
        </mxCell>
        <mxCell id="AtQHAulMX-eyT-m-HNgf-56" value="" style="verticalLabelPosition=bottom;shadow=0;dashed=0;align=center;html=1;verticalAlign=top;shape=mxgraph.electrical.transmission.bus_width;pointerEvents=1;fillColor=none;fontSize=19;fontColor=#000000;" parent="AtQHAulMX-eyT-m-HNgf-54" vertex="1">
          <mxGeometry y="80" width="78" height="1" as="geometry"/>
        </mxCell>
        <mxCell id="AtQHAulMX-eyT-m-HNgf-57" value="" style="group" parent="AtQHAulMX-eyT-m-HNgf-39" vertex="1" connectable="0">
          <mxGeometry x="300" y="115" width="78" height="81" as="geometry"/>
        </mxCell>
        <mxCell id="AtQHAulMX-eyT-m-HNgf-58" value="" style="verticalLabelPosition=bottom;shadow=0;dashed=0;align=center;html=1;verticalAlign=top;shape=mxgraph.electrical.transmission.4_line_bus;fillColor=none;fontSize=19;fontColor=#000000;" parent="AtQHAulMX-eyT-m-HNgf-57" vertex="1">
          <mxGeometry x="2" width="76" height="60" as="geometry"/>
        </mxCell>
        <mxCell id="AtQHAulMX-eyT-m-HNgf-59" value="" style="verticalLabelPosition=bottom;shadow=0;dashed=0;align=center;html=1;verticalAlign=top;shape=mxgraph.electrical.transmission.bus_width;pointerEvents=1;fillColor=none;fontSize=19;fontColor=#000000;" parent="AtQHAulMX-eyT-m-HNgf-57" vertex="1">
          <mxGeometry y="80" width="78" height="1" as="geometry"/>
        </mxCell>
        <mxCell id="AtQHAulMX-eyT-m-HNgf-60" value="加数1" style="text;html=1;align=center;verticalAlign=middle;resizable=0;points=[];autosize=1;fontSize=19;fontColor=#000000;" parent="AtQHAulMX-eyT-m-HNgf-39" vertex="1">
          <mxGeometry y="37" width="60" height="30" as="geometry"/>
        </mxCell>
        <mxCell id="AtQHAulMX-eyT-m-HNgf-61" value="加数2" style="text;html=1;align=center;verticalAlign=middle;resizable=0;points=[];autosize=1;fontSize=19;fontColor=#000000;" parent="AtQHAulMX-eyT-m-HNgf-39" vertex="1">
          <mxGeometry x="6" y="288" width="60" height="30" as="geometry"/>
        </mxCell>
        <mxCell id="AtQHAulMX-eyT-m-HNgf-62" value="和" style="text;html=1;align=center;verticalAlign=middle;resizable=0;points=[];autosize=1;fontSize=19;fontColor=#000000;" parent="AtQHAulMX-eyT-m-HNgf-39" vertex="1">
          <mxGeometry x="390" y="140.5" width="30" height="30" as="geometry"/>
        </mxCell>
        <mxCell id="AtQHAulMX-eyT-m-HNgf-63" value="" style="rounded=0;whiteSpace=wrap;html=1;fillColor=none;fontSize=19;fontColor=#000000;" parent="1" vertex="1">
          <mxGeometry x="1584" y="3960" width="520" height="440" as="geometry"/>
        </mxCell>
        <mxCell id="AtQHAulMX-eyT-m-HNgf-64" value="用5位进行演示原理" style="text;html=1;align=center;verticalAlign=middle;resizable=0;points=[];autosize=1;fontSize=19;fontColor=#000000;" parent="1" vertex="1">
          <mxGeometry x="1904" y="4360" width="180" height="30" as="geometry"/>
        </mxCell>
        <mxCell id="AtQHAulMX-eyT-m-HNgf-65" value="能否让加法器自己记住中间结果，并自动参与和下一个加数的运算结果" style="rounded=0;whiteSpace=wrap;html=1;fillColor=none;fontSize=26;fontColor=#000000;" parent="1" vertex="1">
          <mxGeometry x="2193" y="4090" width="327" height="145" as="geometry"/>
        </mxCell>
        <mxCell id="AtQHAulMX-eyT-m-HNgf-66" value="" style="group" parent="1" vertex="1" connectable="0">
          <mxGeometry x="2910" y="4030" width="140" height="330" as="geometry"/>
        </mxCell>
        <mxCell id="AtQHAulMX-eyT-m-HNgf-67" value="" style="group" parent="AtQHAulMX-eyT-m-HNgf-66" vertex="1" connectable="0">
          <mxGeometry width="140" height="330" as="geometry"/>
        </mxCell>
        <mxCell id="AtQHAulMX-eyT-m-HNgf-68" value="" style="endArrow=none;html=1;fontSize=19;fontColor=#000000;" parent="AtQHAulMX-eyT-m-HNgf-67" edge="1">
          <mxGeometry width="50" height="50" relative="1" as="geometry">
            <mxPoint x="140" y="264" as="sourcePoint"/>
            <mxPoint x="140" y="66" as="targetPoint"/>
          </mxGeometry>
        </mxCell>
        <mxCell id="AtQHAulMX-eyT-m-HNgf-69" value="" style="endArrow=none;html=1;fontSize=19;fontColor=#000000;" parent="AtQHAulMX-eyT-m-HNgf-67" edge="1">
          <mxGeometry width="50" height="50" relative="1" as="geometry">
            <mxPoint x="140" y="66" as="sourcePoint"/>
            <mxPoint as="targetPoint"/>
          </mxGeometry>
        </mxCell>
        <mxCell id="AtQHAulMX-eyT-m-HNgf-70" value="" style="endArrow=none;html=1;fontSize=19;fontColor=#000000;" parent="AtQHAulMX-eyT-m-HNgf-67" edge="1">
          <mxGeometry width="50" height="50" relative="1" as="geometry">
            <mxPoint x="140" y="264" as="sourcePoint"/>
            <mxPoint y="330" as="targetPoint"/>
          </mxGeometry>
        </mxCell>
        <mxCell id="AtQHAulMX-eyT-m-HNgf-71" value="" style="endArrow=none;html=1;fontSize=19;fontColor=#000000;" parent="AtQHAulMX-eyT-m-HNgf-67" edge="1">
          <mxGeometry width="50" height="50" relative="1" as="geometry">
            <mxPoint x="69.125" y="198" as="sourcePoint"/>
            <mxPoint x="69.37874999999997" y="132" as="targetPoint"/>
          </mxGeometry>
        </mxCell>
        <mxCell id="AtQHAulMX-eyT-m-HNgf-72" value="" style="endArrow=none;html=1;fontSize=19;fontColor=#000000;" parent="AtQHAulMX-eyT-m-HNgf-67" edge="1">
          <mxGeometry width="50" height="50" relative="1" as="geometry">
            <mxPoint y="90.75" as="sourcePoint"/>
            <mxPoint x="70" y="132" as="targetPoint"/>
          </mxGeometry>
        </mxCell>
        <mxCell id="AtQHAulMX-eyT-m-HNgf-73" value="" style="endArrow=none;html=1;fontSize=19;fontColor=#000000;" parent="AtQHAulMX-eyT-m-HNgf-67" edge="1">
          <mxGeometry width="50" height="50" relative="1" as="geometry">
            <mxPoint y="90.75" as="sourcePoint"/>
            <mxPoint as="targetPoint"/>
          </mxGeometry>
        </mxCell>
        <mxCell id="AtQHAulMX-eyT-m-HNgf-74" value="" style="endArrow=none;html=1;fontSize=19;fontColor=#000000;" parent="AtQHAulMX-eyT-m-HNgf-67" edge="1">
          <mxGeometry width="50" height="50" relative="1" as="geometry">
            <mxPoint x="1.3125" y="330" as="sourcePoint"/>
            <mxPoint x="1.3125" y="239.25" as="targetPoint"/>
          </mxGeometry>
        </mxCell>
        <mxCell id="AtQHAulMX-eyT-m-HNgf-75" value="" style="endArrow=none;html=1;fontSize=19;fontColor=#000000;" parent="AtQHAulMX-eyT-m-HNgf-67" edge="1">
          <mxGeometry width="50" height="50" relative="1" as="geometry">
            <mxPoint x="70" y="198" as="sourcePoint"/>
            <mxPoint y="239.25" as="targetPoint"/>
          </mxGeometry>
        </mxCell>
        <mxCell id="AtQHAulMX-eyT-m-HNgf-76" value="&lt;font style=&quot;font-size: 36px&quot;&gt;加&lt;br&gt;法&lt;br&gt;器&lt;/font&gt;" style="text;html=1;align=center;verticalAlign=middle;resizable=0;points=[];autosize=1;fontSize=19;fontColor=#000000;" parent="AtQHAulMX-eyT-m-HNgf-67" vertex="1">
          <mxGeometry x="80" y="110" width="50" height="90" as="geometry"/>
        </mxCell>
        <mxCell id="AtQHAulMX-eyT-m-HNgf-77" value="" style="group" parent="1" vertex="1" connectable="0">
          <mxGeometry x="2700" y="4045" width="78" height="81" as="geometry"/>
        </mxCell>
        <mxCell id="AtQHAulMX-eyT-m-HNgf-78" value="" style="verticalLabelPosition=bottom;shadow=0;dashed=0;align=center;html=1;verticalAlign=top;shape=mxgraph.electrical.transmission.4_line_bus;fillColor=none;fontSize=19;fontColor=#000000;" parent="AtQHAulMX-eyT-m-HNgf-77" vertex="1">
          <mxGeometry x="2" width="76" height="60" as="geometry"/>
        </mxCell>
        <mxCell id="AtQHAulMX-eyT-m-HNgf-79" value="" style="verticalLabelPosition=bottom;shadow=0;dashed=0;align=center;html=1;verticalAlign=top;shape=mxgraph.electrical.transmission.bus_width;pointerEvents=1;fillColor=none;fontSize=19;fontColor=#000000;" parent="AtQHAulMX-eyT-m-HNgf-77" vertex="1">
          <mxGeometry y="80" width="78" height="1" as="geometry"/>
        </mxCell>
        <mxCell id="AtQHAulMX-eyT-m-HNgf-80" value="" style="group" parent="1" vertex="1" connectable="0">
          <mxGeometry x="3050" y="4145" width="78" height="81" as="geometry"/>
        </mxCell>
        <mxCell id="AtQHAulMX-eyT-m-HNgf-81" value="" style="verticalLabelPosition=bottom;shadow=0;dashed=0;align=center;html=1;verticalAlign=top;shape=mxgraph.electrical.transmission.4_line_bus;fillColor=none;fontSize=19;fontColor=#000000;" parent="AtQHAulMX-eyT-m-HNgf-80" vertex="1">
          <mxGeometry x="2" width="76" height="60" as="geometry"/>
        </mxCell>
        <mxCell id="AtQHAulMX-eyT-m-HNgf-82" value="" style="verticalLabelPosition=bottom;shadow=0;dashed=0;align=center;html=1;verticalAlign=top;shape=mxgraph.electrical.transmission.bus_width;pointerEvents=1;fillColor=none;fontSize=19;fontColor=#000000;" parent="AtQHAulMX-eyT-m-HNgf-80" vertex="1">
          <mxGeometry y="80" width="78" height="1" as="geometry"/>
        </mxCell>
        <mxCell id="AtQHAulMX-eyT-m-HNgf-83" value="加数1" style="text;html=1;align=center;verticalAlign=middle;resizable=0;points=[];autosize=1;fontSize=19;fontColor=#000000;" parent="1" vertex="1">
          <mxGeometry x="2612.5" y="4067" width="60" height="30" as="geometry"/>
        </mxCell>
        <mxCell id="AtQHAulMX-eyT-m-HNgf-84" value="和" style="text;html=1;align=center;verticalAlign=middle;resizable=0;points=[];autosize=1;fontSize=19;fontColor=#000000;" parent="1" vertex="1">
          <mxGeometry x="3140" y="4170.5" width="30" height="30" as="geometry"/>
        </mxCell>
        <mxCell id="AtQHAulMX-eyT-m-HNgf-85" value="" style="endArrow=none;html=1;fontSize=19;fontColor=#000000;" parent="1" edge="1">
          <mxGeometry width="50" height="50" relative="1" as="geometry">
            <mxPoint x="2920" y="4130.75" as="sourcePoint"/>
            <mxPoint x="2920" y="4040" as="targetPoint"/>
          </mxGeometry>
        </mxCell>
        <mxCell id="AtQHAulMX-eyT-m-HNgf-86" value="" style="group" parent="1" vertex="1" connectable="0">
          <mxGeometry x="2840" y="4045" width="78" height="81" as="geometry"/>
        </mxCell>
        <mxCell id="AtQHAulMX-eyT-m-HNgf-87" value="" style="verticalLabelPosition=bottom;shadow=0;dashed=0;align=center;html=1;verticalAlign=top;shape=mxgraph.electrical.transmission.4_line_bus;fillColor=none;fontSize=19;fontColor=#000000;" parent="AtQHAulMX-eyT-m-HNgf-86" vertex="1">
          <mxGeometry x="2" width="76" height="60" as="geometry"/>
        </mxCell>
        <mxCell id="AtQHAulMX-eyT-m-HNgf-88" value="" style="verticalLabelPosition=bottom;shadow=0;dashed=0;align=center;html=1;verticalAlign=top;shape=mxgraph.electrical.transmission.bus_width;pointerEvents=1;fillColor=none;fontSize=19;fontColor=#000000;" parent="AtQHAulMX-eyT-m-HNgf-86" vertex="1">
          <mxGeometry y="80" width="78" height="1" as="geometry"/>
        </mxCell>
        <mxCell id="AtQHAulMX-eyT-m-HNgf-89" style="edgeStyle=orthogonalEdgeStyle;rounded=0;orthogonalLoop=1;jettySize=auto;html=1;exitX=0.5;exitY=0;exitDx=0;exitDy=0;endArrow=none;endFill=0;fontSize=26;fontColor=#000000;" parent="1" source="AtQHAulMX-eyT-m-HNgf-90" edge="1">
          <mxGeometry relative="1" as="geometry">
            <mxPoint x="2882" y="3970" as="targetPoint"/>
            <Array as="points">
              <mxPoint x="2810" y="3970"/>
            </Array>
          </mxGeometry>
        </mxCell>
        <mxCell id="AtQHAulMX-eyT-m-HNgf-90" value="R&lt;br&gt;A" style="rounded=0;whiteSpace=wrap;html=1;fillColor=none;fontSize=26;fontColor=#000000;" parent="1" vertex="1">
          <mxGeometry x="2781" y="4020" width="59" height="130" as="geometry"/>
        </mxCell>
        <mxCell id="AtQHAulMX-eyT-m-HNgf-91" value="" style="pointerEvents=1;verticalLabelPosition=bottom;shadow=0;dashed=0;align=center;html=1;verticalAlign=top;shape=mxgraph.electrical.electro-mechanical.pushbutton_make;fillColor=none;fontSize=26;fontColor=#000000;" parent="1" vertex="1">
          <mxGeometry x="2878.75" y="3920" width="75" height="53" as="geometry"/>
        </mxCell>
        <mxCell id="AtQHAulMX-eyT-m-HNgf-92" value="Kra" style="text;html=1;align=center;verticalAlign=middle;resizable=0;points=[];autosize=1;fontSize=26;fontColor=#000000;" parent="1" vertex="1">
          <mxGeometry x="2893.75" y="3880" width="60" height="40" as="geometry"/>
        </mxCell>
        <mxCell id="AtQHAulMX-eyT-m-HNgf-93" value="RA寄存器&lt;br&gt;1、数据进入数据端&lt;br&gt;2、按下RA寄存器的开关，数据输出到存储端&lt;br&gt;3、同时被加法器取走并进行加法运算" style="text;html=1;align=left;verticalAlign=middle;resizable=0;points=[];autosize=1;fontSize=26;fontColor=#000000;" parent="1" vertex="1">
          <mxGeometry x="2642.5" y="4400" width="530" height="130" as="geometry"/>
        </mxCell>
        <mxCell id="AtQHAulMX-eyT-m-HNgf-94" value="" style="group" parent="1" vertex="1" connectable="0">
          <mxGeometry x="3897.5" y="4030" width="140" height="330" as="geometry"/>
        </mxCell>
        <mxCell id="AtQHAulMX-eyT-m-HNgf-95" value="" style="group" parent="AtQHAulMX-eyT-m-HNgf-94" vertex="1" connectable="0">
          <mxGeometry width="140" height="330" as="geometry"/>
        </mxCell>
        <mxCell id="AtQHAulMX-eyT-m-HNgf-96" value="" style="endArrow=none;html=1;fontSize=19;fontColor=#000000;" parent="AtQHAulMX-eyT-m-HNgf-95" edge="1">
          <mxGeometry width="50" height="50" relative="1" as="geometry">
            <mxPoint x="140" y="264" as="sourcePoint"/>
            <mxPoint x="140" y="66" as="targetPoint"/>
          </mxGeometry>
        </mxCell>
        <mxCell id="AtQHAulMX-eyT-m-HNgf-97" value="" style="endArrow=none;html=1;fontSize=19;fontColor=#000000;" parent="AtQHAulMX-eyT-m-HNgf-95" edge="1">
          <mxGeometry width="50" height="50" relative="1" as="geometry">
            <mxPoint x="140" y="66" as="sourcePoint"/>
            <mxPoint as="targetPoint"/>
          </mxGeometry>
        </mxCell>
        <mxCell id="AtQHAulMX-eyT-m-HNgf-98" value="" style="endArrow=none;html=1;fontSize=19;fontColor=#000000;" parent="AtQHAulMX-eyT-m-HNgf-95" edge="1">
          <mxGeometry width="50" height="50" relative="1" as="geometry">
            <mxPoint x="140" y="264" as="sourcePoint"/>
            <mxPoint y="330" as="targetPoint"/>
          </mxGeometry>
        </mxCell>
        <mxCell id="AtQHAulMX-eyT-m-HNgf-99" value="" style="endArrow=none;html=1;fontSize=19;fontColor=#000000;" parent="AtQHAulMX-eyT-m-HNgf-95" edge="1">
          <mxGeometry width="50" height="50" relative="1" as="geometry">
            <mxPoint x="69.125" y="198" as="sourcePoint"/>
            <mxPoint x="69.37874999999997" y="132" as="targetPoint"/>
          </mxGeometry>
        </mxCell>
        <mxCell id="AtQHAulMX-eyT-m-HNgf-100" value="" style="endArrow=none;html=1;fontSize=19;fontColor=#000000;" parent="AtQHAulMX-eyT-m-HNgf-95" edge="1">
          <mxGeometry width="50" height="50" relative="1" as="geometry">
            <mxPoint y="90.75" as="sourcePoint"/>
            <mxPoint x="70" y="132" as="targetPoint"/>
          </mxGeometry>
        </mxCell>
        <mxCell id="AtQHAulMX-eyT-m-HNgf-101" value="" style="endArrow=none;html=1;fontSize=19;fontColor=#000000;" parent="AtQHAulMX-eyT-m-HNgf-95" edge="1">
          <mxGeometry width="50" height="50" relative="1" as="geometry">
            <mxPoint y="90.75" as="sourcePoint"/>
            <mxPoint as="targetPoint"/>
          </mxGeometry>
        </mxCell>
        <mxCell id="AtQHAulMX-eyT-m-HNgf-102" value="" style="endArrow=none;html=1;fontSize=19;fontColor=#000000;" parent="AtQHAulMX-eyT-m-HNgf-95" edge="1">
          <mxGeometry width="50" height="50" relative="1" as="geometry">
            <mxPoint x="1.3125" y="330" as="sourcePoint"/>
            <mxPoint x="1.3125" y="239.25" as="targetPoint"/>
          </mxGeometry>
        </mxCell>
        <mxCell id="AtQHAulMX-eyT-m-HNgf-103" value="" style="endArrow=none;html=1;fontSize=19;fontColor=#000000;" parent="AtQHAulMX-eyT-m-HNgf-95" edge="1">
          <mxGeometry width="50" height="50" relative="1" as="geometry">
            <mxPoint x="70" y="198" as="sourcePoint"/>
            <mxPoint y="239.25" as="targetPoint"/>
          </mxGeometry>
        </mxCell>
        <mxCell id="AtQHAulMX-eyT-m-HNgf-104" value="&lt;font style=&quot;font-size: 36px&quot;&gt;加&lt;br&gt;法&lt;br&gt;器&lt;/font&gt;" style="text;html=1;align=center;verticalAlign=middle;resizable=0;points=[];autosize=1;fontSize=19;fontColor=#000000;" parent="AtQHAulMX-eyT-m-HNgf-95" vertex="1">
          <mxGeometry x="80" y="110" width="50" height="90" as="geometry"/>
        </mxCell>
        <mxCell id="AtQHAulMX-eyT-m-HNgf-105" value="" style="group" parent="1" vertex="1" connectable="0">
          <mxGeometry x="3500" y="4045" width="265.5" height="81" as="geometry"/>
        </mxCell>
        <mxCell id="AtQHAulMX-eyT-m-HNgf-106" value="" style="verticalLabelPosition=bottom;shadow=0;dashed=0;align=center;html=1;verticalAlign=top;shape=mxgraph.electrical.transmission.4_line_bus;fillColor=none;fontSize=19;fontColor=#000000;" parent="AtQHAulMX-eyT-m-HNgf-105" vertex="1">
          <mxGeometry x="6.8076923076923075" width="258.6923076923077" height="60" as="geometry"/>
        </mxCell>
        <mxCell id="AtQHAulMX-eyT-m-HNgf-107" value="" style="verticalLabelPosition=bottom;shadow=0;dashed=0;align=center;html=1;verticalAlign=top;shape=mxgraph.electrical.transmission.bus_width;pointerEvents=1;fillColor=none;fontSize=19;fontColor=#000000;" parent="AtQHAulMX-eyT-m-HNgf-105" vertex="1">
          <mxGeometry y="80" width="265.5" height="1" as="geometry"/>
        </mxCell>
        <mxCell id="AtQHAulMX-eyT-m-HNgf-108" value="" style="group" parent="1" vertex="1" connectable="0">
          <mxGeometry x="3817.5" y="4275" width="78" height="81" as="geometry"/>
        </mxCell>
        <mxCell id="AtQHAulMX-eyT-m-HNgf-109" value="" style="verticalLabelPosition=bottom;shadow=0;dashed=0;align=center;html=1;verticalAlign=top;shape=mxgraph.electrical.transmission.4_line_bus;fillColor=none;fontSize=19;fontColor=#000000;" parent="AtQHAulMX-eyT-m-HNgf-108" vertex="1">
          <mxGeometry x="2" width="76" height="60" as="geometry"/>
        </mxCell>
        <mxCell id="AtQHAulMX-eyT-m-HNgf-110" value="" style="verticalLabelPosition=bottom;shadow=0;dashed=0;align=center;html=1;verticalAlign=top;shape=mxgraph.electrical.transmission.bus_width;pointerEvents=1;fillColor=none;fontSize=19;fontColor=#000000;" parent="AtQHAulMX-eyT-m-HNgf-108" vertex="1">
          <mxGeometry y="80" width="78" height="1" as="geometry"/>
        </mxCell>
        <mxCell id="AtQHAulMX-eyT-m-HNgf-111" value="" style="group" parent="1" vertex="1" connectable="0">
          <mxGeometry x="4037.5" y="4145" width="78" height="81" as="geometry"/>
        </mxCell>
        <mxCell id="AtQHAulMX-eyT-m-HNgf-112" value="" style="verticalLabelPosition=bottom;shadow=0;dashed=0;align=center;html=1;verticalAlign=top;shape=mxgraph.electrical.transmission.4_line_bus;fillColor=none;fontSize=19;fontColor=#000000;" parent="AtQHAulMX-eyT-m-HNgf-111" vertex="1">
          <mxGeometry x="2" width="76" height="60" as="geometry"/>
        </mxCell>
        <mxCell id="AtQHAulMX-eyT-m-HNgf-113" value="" style="verticalLabelPosition=bottom;shadow=0;dashed=0;align=center;html=1;verticalAlign=top;shape=mxgraph.electrical.transmission.bus_width;pointerEvents=1;fillColor=none;fontSize=19;fontColor=#000000;" parent="AtQHAulMX-eyT-m-HNgf-111" vertex="1">
          <mxGeometry y="80" width="78" height="1" as="geometry"/>
        </mxCell>
        <mxCell id="AtQHAulMX-eyT-m-HNgf-114" value="加数1" style="text;html=1;align=center;verticalAlign=middle;resizable=0;points=[];autosize=1;fontSize=19;fontColor=#000000;" parent="1" vertex="1">
          <mxGeometry x="3415" y="4060" width="60" height="30" as="geometry"/>
        </mxCell>
        <mxCell id="AtQHAulMX-eyT-m-HNgf-115" value="和" style="text;html=1;align=center;verticalAlign=middle;resizable=0;points=[];autosize=1;fontSize=19;fontColor=#000000;" parent="1" vertex="1">
          <mxGeometry x="4127.5" y="4170.5" width="30" height="30" as="geometry"/>
        </mxCell>
        <mxCell id="AtQHAulMX-eyT-m-HNgf-116" value="" style="group" parent="1" vertex="1" connectable="0">
          <mxGeometry x="3827.5" y="4045" width="72.5" height="81" as="geometry"/>
        </mxCell>
        <mxCell id="AtQHAulMX-eyT-m-HNgf-117" value="" style="verticalLabelPosition=bottom;shadow=0;dashed=0;align=center;html=1;verticalAlign=top;shape=mxgraph.electrical.transmission.4_line_bus;fillColor=none;fontSize=19;fontColor=#000000;" parent="AtQHAulMX-eyT-m-HNgf-116" vertex="1">
          <mxGeometry x="1.858974358974359" width="70.64102564102565" height="60" as="geometry"/>
        </mxCell>
        <mxCell id="AtQHAulMX-eyT-m-HNgf-118" value="" style="verticalLabelPosition=bottom;shadow=0;dashed=0;align=center;html=1;verticalAlign=top;shape=mxgraph.electrical.transmission.bus_width;pointerEvents=1;fillColor=none;fontSize=19;fontColor=#000000;" parent="AtQHAulMX-eyT-m-HNgf-116" vertex="1">
          <mxGeometry y="80" width="72.5" height="1" as="geometry"/>
        </mxCell>
        <mxCell id="AtQHAulMX-eyT-m-HNgf-119" style="edgeStyle=orthogonalEdgeStyle;rounded=0;orthogonalLoop=1;jettySize=auto;html=1;exitX=0.5;exitY=0;exitDx=0;exitDy=0;endArrow=none;endFill=0;fontSize=26;fontColor=#000000;" parent="1" source="AtQHAulMX-eyT-m-HNgf-120" edge="1">
          <mxGeometry relative="1" as="geometry">
            <mxPoint x="3867" y="3970" as="targetPoint"/>
            <Array as="points">
              <mxPoint x="3797.5" y="3970"/>
            </Array>
          </mxGeometry>
        </mxCell>
        <mxCell id="AtQHAulMX-eyT-m-HNgf-120" value="R&lt;br&gt;A" style="rounded=0;whiteSpace=wrap;html=1;fillColor=none;fontSize=26;fontColor=#000000;" parent="1" vertex="1">
          <mxGeometry x="3768.5" y="4020" width="59" height="130" as="geometry"/>
        </mxCell>
        <mxCell id="AtQHAulMX-eyT-m-HNgf-121" value="" style="pointerEvents=1;verticalLabelPosition=bottom;shadow=0;dashed=0;align=center;html=1;verticalAlign=top;shape=mxgraph.electrical.electro-mechanical.pushbutton_make;fillColor=none;fontSize=26;fontColor=#000000;" parent="1" vertex="1">
          <mxGeometry x="3866.25" y="3920" width="75" height="53" as="geometry"/>
        </mxCell>
        <mxCell id="AtQHAulMX-eyT-m-HNgf-122" value="Kra" style="text;html=1;align=center;verticalAlign=middle;resizable=0;points=[];autosize=1;fontSize=26;fontColor=#000000;" parent="1" vertex="1">
          <mxGeometry x="3881.25" y="3880" width="60" height="40" as="geometry"/>
        </mxCell>
        <mxCell id="AtQHAulMX-eyT-m-HNgf-123" style="edgeStyle=orthogonalEdgeStyle;rounded=0;orthogonalLoop=1;jettySize=auto;html=1;exitX=0;exitY=0;exitDx=0;exitDy=0;exitPerimeter=0;entryX=0.709;entryY=0.019;entryDx=0;entryDy=0;entryPerimeter=0;endArrow=none;endFill=0;fontSize=26;fontColor=#000000;" parent="1" source="AtQHAulMX-eyT-m-HNgf-109" target="AtQHAulMX-eyT-m-HNgf-106" edge="1">
          <mxGeometry relative="1" as="geometry">
            <Array as="points">
              <mxPoint x="3690" y="4275"/>
            </Array>
          </mxGeometry>
        </mxCell>
        <mxCell id="AtQHAulMX-eyT-m-HNgf-124" style="edgeStyle=orthogonalEdgeStyle;rounded=0;orthogonalLoop=1;jettySize=auto;html=1;exitX=0;exitY=0.33;exitDx=0;exitDy=0;exitPerimeter=0;entryX=0.632;entryY=0.376;entryDx=0;entryDy=0;entryPerimeter=0;endArrow=none;endFill=0;fontSize=26;fontColor=#000000;" parent="1" source="AtQHAulMX-eyT-m-HNgf-109" target="AtQHAulMX-eyT-m-HNgf-106" edge="1">
          <mxGeometry relative="1" as="geometry"/>
        </mxCell>
        <mxCell id="AtQHAulMX-eyT-m-HNgf-125" style="edgeStyle=orthogonalEdgeStyle;rounded=0;orthogonalLoop=1;jettySize=auto;html=1;exitX=0;exitY=0.67;exitDx=0;exitDy=0;exitPerimeter=0;entryX=0.538;entryY=0.733;entryDx=0;entryDy=0;entryPerimeter=0;endArrow=none;endFill=0;fontSize=26;fontColor=#000000;" parent="1" source="AtQHAulMX-eyT-m-HNgf-109" target="AtQHAulMX-eyT-m-HNgf-106" edge="1">
          <mxGeometry relative="1" as="geometry"/>
        </mxCell>
        <mxCell id="AtQHAulMX-eyT-m-HNgf-126" style="edgeStyle=orthogonalEdgeStyle;rounded=0;orthogonalLoop=1;jettySize=auto;html=1;exitX=0;exitY=1;exitDx=0;exitDy=0;exitPerimeter=0;entryX=0.438;entryY=1.083;entryDx=0;entryDy=0;entryPerimeter=0;endArrow=none;endFill=0;fontSize=26;fontColor=#000000;" parent="1" source="AtQHAulMX-eyT-m-HNgf-109" target="AtQHAulMX-eyT-m-HNgf-106" edge="1">
          <mxGeometry relative="1" as="geometry">
            <Array as="points">
              <mxPoint x="3620" y="4335"/>
            </Array>
          </mxGeometry>
        </mxCell>
        <mxCell id="AtQHAulMX-eyT-m-HNgf-127" style="edgeStyle=orthogonalEdgeStyle;rounded=0;orthogonalLoop=1;jettySize=auto;html=1;entryX=0.335;entryY=5.429;entryDx=0;entryDy=0;entryPerimeter=0;endArrow=none;endFill=0;fontSize=26;fontColor=#000000;" parent="1" source="AtQHAulMX-eyT-m-HNgf-110" target="AtQHAulMX-eyT-m-HNgf-107" edge="1">
          <mxGeometry relative="1" as="geometry"/>
        </mxCell>
        <mxCell id="AtQHAulMX-eyT-m-HNgf-128" value="10+5" style="text;html=1;align=center;verticalAlign=middle;resizable=0;points=[];autosize=1;fontSize=26;fontColor=#000000;" parent="1" vertex="1">
          <mxGeometry x="3418.62" y="3900" width="70" height="40" as="geometry"/>
        </mxCell>
        <mxCell id="AtQHAulMX-eyT-m-HNgf-129" value="1、第一个加数10被输入，然后从两路传输&lt;br&gt;&lt;div style=&quot;&quot;&gt;&lt;span&gt;2、点下RA开关，数据进入存储端&lt;/span&gt;&lt;/div&gt;&lt;div style=&quot;&quot;&gt;&lt;span&gt;3、加法器将两个加数10、10相加得到20&lt;/span&gt;&lt;/div&gt;&lt;div style=&quot;&quot;&gt;&lt;span&gt;4、接着输入5，分两路传输&lt;/span&gt;&lt;/div&gt;&lt;div style=&quot;&quot;&gt;&lt;span&gt;5、此时RA开关并不会被点击，所以不会输出到RA的存储端&lt;/span&gt;&lt;/div&gt;&lt;div style=&quot;&quot;&gt;&lt;span&gt;6、下边的加数10被新来的5给覆盖掉&lt;/span&gt;&lt;/div&gt;&lt;div style=&quot;&quot;&gt;&lt;span&gt;7、加法器将10和5相加得到15&lt;/span&gt;&lt;/div&gt;" style="text;html=1;align=left;verticalAlign=middle;resizable=0;points=[];autosize=1;fontSize=26;fontColor=#000000;" parent="1" vertex="1">
          <mxGeometry x="3389" y="4400" width="700" height="220" as="geometry"/>
        </mxCell>
        <mxCell id="AtQHAulMX-eyT-m-HNgf-130" value="" style="group" parent="1" vertex="1" connectable="0">
          <mxGeometry x="4922.5" y="4030" width="140" height="330" as="geometry"/>
        </mxCell>
        <mxCell id="AtQHAulMX-eyT-m-HNgf-131" value="" style="group" parent="AtQHAulMX-eyT-m-HNgf-130" vertex="1" connectable="0">
          <mxGeometry width="140" height="330" as="geometry"/>
        </mxCell>
        <mxCell id="AtQHAulMX-eyT-m-HNgf-132" value="" style="endArrow=none;html=1;fontSize=19;fontColor=#000000;" parent="AtQHAulMX-eyT-m-HNgf-131" edge="1">
          <mxGeometry width="50" height="50" relative="1" as="geometry">
            <mxPoint x="140" y="264" as="sourcePoint"/>
            <mxPoint x="140" y="66" as="targetPoint"/>
          </mxGeometry>
        </mxCell>
        <mxCell id="AtQHAulMX-eyT-m-HNgf-133" value="" style="endArrow=none;html=1;fontSize=19;fontColor=#000000;" parent="AtQHAulMX-eyT-m-HNgf-131" edge="1">
          <mxGeometry width="50" height="50" relative="1" as="geometry">
            <mxPoint x="140" y="66" as="sourcePoint"/>
            <mxPoint as="targetPoint"/>
          </mxGeometry>
        </mxCell>
        <mxCell id="AtQHAulMX-eyT-m-HNgf-134" value="" style="endArrow=none;html=1;fontSize=19;fontColor=#000000;" parent="AtQHAulMX-eyT-m-HNgf-131" edge="1">
          <mxGeometry width="50" height="50" relative="1" as="geometry">
            <mxPoint x="140" y="264" as="sourcePoint"/>
            <mxPoint y="330" as="targetPoint"/>
          </mxGeometry>
        </mxCell>
        <mxCell id="AtQHAulMX-eyT-m-HNgf-135" value="" style="endArrow=none;html=1;fontSize=19;fontColor=#000000;" parent="AtQHAulMX-eyT-m-HNgf-131" edge="1">
          <mxGeometry width="50" height="50" relative="1" as="geometry">
            <mxPoint x="69.125" y="198" as="sourcePoint"/>
            <mxPoint x="69.37874999999997" y="132" as="targetPoint"/>
          </mxGeometry>
        </mxCell>
        <mxCell id="AtQHAulMX-eyT-m-HNgf-136" value="" style="endArrow=none;html=1;fontSize=19;fontColor=#000000;" parent="AtQHAulMX-eyT-m-HNgf-131" edge="1">
          <mxGeometry width="50" height="50" relative="1" as="geometry">
            <mxPoint y="90.75" as="sourcePoint"/>
            <mxPoint x="70" y="132" as="targetPoint"/>
          </mxGeometry>
        </mxCell>
        <mxCell id="AtQHAulMX-eyT-m-HNgf-137" value="" style="endArrow=none;html=1;fontSize=19;fontColor=#000000;" parent="AtQHAulMX-eyT-m-HNgf-131" edge="1">
          <mxGeometry width="50" height="50" relative="1" as="geometry">
            <mxPoint x="-3" y="90.75" as="sourcePoint"/>
            <mxPoint x="-3" as="targetPoint"/>
          </mxGeometry>
        </mxCell>
        <mxCell id="AtQHAulMX-eyT-m-HNgf-138" value="" style="endArrow=none;html=1;fontSize=19;fontColor=#000000;" parent="AtQHAulMX-eyT-m-HNgf-131" edge="1">
          <mxGeometry width="50" height="50" relative="1" as="geometry">
            <mxPoint x="1.3125" y="330" as="sourcePoint"/>
            <mxPoint x="1.3125" y="239.25" as="targetPoint"/>
          </mxGeometry>
        </mxCell>
        <mxCell id="AtQHAulMX-eyT-m-HNgf-139" value="" style="endArrow=none;html=1;fontSize=19;fontColor=#000000;" parent="AtQHAulMX-eyT-m-HNgf-131" edge="1">
          <mxGeometry width="50" height="50" relative="1" as="geometry">
            <mxPoint x="70" y="198" as="sourcePoint"/>
            <mxPoint y="239.25" as="targetPoint"/>
          </mxGeometry>
        </mxCell>
        <mxCell id="AtQHAulMX-eyT-m-HNgf-140" value="&lt;font style=&quot;font-size: 36px&quot;&gt;加&lt;br&gt;法&lt;br&gt;器&lt;/font&gt;" style="text;html=1;align=center;verticalAlign=middle;resizable=0;points=[];autosize=1;fontSize=19;fontColor=#000000;" parent="AtQHAulMX-eyT-m-HNgf-131" vertex="1">
          <mxGeometry x="80" y="110" width="50" height="90" as="geometry"/>
        </mxCell>
        <mxCell id="AtQHAulMX-eyT-m-HNgf-141" value="" style="group" parent="1" vertex="1" connectable="0">
          <mxGeometry x="4842.5" y="4275" width="78" height="81" as="geometry"/>
        </mxCell>
        <mxCell id="AtQHAulMX-eyT-m-HNgf-142" value="" style="verticalLabelPosition=bottom;shadow=0;dashed=0;align=center;html=1;verticalAlign=top;shape=mxgraph.electrical.transmission.4_line_bus;fillColor=none;fontSize=19;fontColor=#000000;" parent="AtQHAulMX-eyT-m-HNgf-141" vertex="1">
          <mxGeometry x="2" width="76" height="60" as="geometry"/>
        </mxCell>
        <mxCell id="AtQHAulMX-eyT-m-HNgf-143" value="" style="verticalLabelPosition=bottom;shadow=0;dashed=0;align=center;html=1;verticalAlign=top;shape=mxgraph.electrical.transmission.bus_width;pointerEvents=1;fillColor=none;fontSize=19;fontColor=#000000;" parent="AtQHAulMX-eyT-m-HNgf-141" vertex="1">
          <mxGeometry y="80" width="78" height="1" as="geometry"/>
        </mxCell>
        <mxCell id="AtQHAulMX-eyT-m-HNgf-144" value="" style="group" parent="1" vertex="1" connectable="0">
          <mxGeometry x="5062.5" y="4145" width="78" height="81" as="geometry"/>
        </mxCell>
        <mxCell id="AtQHAulMX-eyT-m-HNgf-145" value="" style="verticalLabelPosition=bottom;shadow=0;dashed=0;align=center;html=1;verticalAlign=top;shape=mxgraph.electrical.transmission.4_line_bus;fillColor=none;fontSize=19;fontColor=#000000;" parent="AtQHAulMX-eyT-m-HNgf-144" vertex="1">
          <mxGeometry x="2" width="76" height="60" as="geometry"/>
        </mxCell>
        <mxCell id="AtQHAulMX-eyT-m-HNgf-146" value="" style="verticalLabelPosition=bottom;shadow=0;dashed=0;align=center;html=1;verticalAlign=top;shape=mxgraph.electrical.transmission.bus_width;pointerEvents=1;fillColor=none;fontSize=19;fontColor=#000000;" parent="AtQHAulMX-eyT-m-HNgf-144" vertex="1">
          <mxGeometry y="80" width="78" height="1" as="geometry"/>
        </mxCell>
        <mxCell id="AtQHAulMX-eyT-m-HNgf-147" value="加数1" style="text;html=1;align=center;verticalAlign=middle;resizable=0;points=[];autosize=1;fontSize=19;fontColor=#000000;" parent="1" vertex="1">
          <mxGeometry x="4270" y="4067" width="60" height="30" as="geometry"/>
        </mxCell>
        <mxCell id="AtQHAulMX-eyT-m-HNgf-148" value="" style="group" parent="1" vertex="1" connectable="0">
          <mxGeometry x="4849.5" y="4045" width="70.5" height="81" as="geometry"/>
        </mxCell>
        <mxCell id="AtQHAulMX-eyT-m-HNgf-149" value="" style="verticalLabelPosition=bottom;shadow=0;dashed=0;align=center;html=1;verticalAlign=top;shape=mxgraph.electrical.transmission.4_line_bus;fillColor=none;fontSize=19;fontColor=#000000;" parent="AtQHAulMX-eyT-m-HNgf-148" vertex="1">
          <mxGeometry x="1.8076923076923077" width="68.6923076923077" height="60" as="geometry"/>
        </mxCell>
        <mxCell id="AtQHAulMX-eyT-m-HNgf-150" value="" style="verticalLabelPosition=bottom;shadow=0;dashed=0;align=center;html=1;verticalAlign=top;shape=mxgraph.electrical.transmission.bus_width;pointerEvents=1;fillColor=none;fontSize=19;fontColor=#000000;" parent="AtQHAulMX-eyT-m-HNgf-148" vertex="1">
          <mxGeometry y="80" width="70.5" height="1" as="geometry"/>
        </mxCell>
        <mxCell id="AtQHAulMX-eyT-m-HNgf-151" style="edgeStyle=orthogonalEdgeStyle;rounded=0;orthogonalLoop=1;jettySize=auto;html=1;exitX=0.5;exitY=0;exitDx=0;exitDy=0;endArrow=none;endFill=0;fontSize=26;fontColor=#000000;" parent="1" source="AtQHAulMX-eyT-m-HNgf-152" edge="1">
          <mxGeometry relative="1" as="geometry">
            <mxPoint x="4892" y="3970" as="targetPoint"/>
            <Array as="points">
              <mxPoint x="4822.5" y="3970"/>
            </Array>
          </mxGeometry>
        </mxCell>
        <mxCell id="AtQHAulMX-eyT-m-HNgf-152" value="R&lt;br&gt;A" style="rounded=0;whiteSpace=wrap;html=1;fillColor=none;fontSize=26;fontColor=#000000;" parent="1" vertex="1">
          <mxGeometry x="4790.5" y="4020" width="59" height="130" as="geometry"/>
        </mxCell>
        <mxCell id="AtQHAulMX-eyT-m-HNgf-153" value="" style="pointerEvents=1;verticalLabelPosition=bottom;shadow=0;dashed=0;align=center;html=1;verticalAlign=top;shape=mxgraph.electrical.electro-mechanical.pushbutton_make;fillColor=none;fontSize=26;fontColor=#000000;" parent="1" vertex="1">
          <mxGeometry x="4891.25" y="3920" width="75" height="53" as="geometry"/>
        </mxCell>
        <mxCell id="AtQHAulMX-eyT-m-HNgf-154" value="Kra" style="text;html=1;align=center;verticalAlign=middle;resizable=0;points=[];autosize=1;fontSize=26;fontColor=#000000;" parent="1" vertex="1">
          <mxGeometry x="4906.25" y="3880" width="60" height="40" as="geometry"/>
        </mxCell>
        <mxCell id="AtQHAulMX-eyT-m-HNgf-155" style="edgeStyle=orthogonalEdgeStyle;rounded=0;orthogonalLoop=1;jettySize=auto;html=1;exitX=0;exitY=0;exitDx=0;exitDy=0;exitPerimeter=0;entryX=0.709;entryY=0.019;entryDx=0;entryDy=0;entryPerimeter=0;endArrow=none;endFill=0;fontSize=26;fontColor=#000000;" parent="1" source="AtQHAulMX-eyT-m-HNgf-142" target="AtQHAulMX-eyT-m-HNgf-165" edge="1">
          <mxGeometry relative="1" as="geometry">
            <Array as="points">
              <mxPoint x="4715" y="4275"/>
            </Array>
          </mxGeometry>
        </mxCell>
        <mxCell id="AtQHAulMX-eyT-m-HNgf-156" style="edgeStyle=orthogonalEdgeStyle;rounded=0;orthogonalLoop=1;jettySize=auto;html=1;exitX=0;exitY=0.33;exitDx=0;exitDy=0;exitPerimeter=0;entryX=0.775;entryY=0.376;entryDx=0;entryDy=0;entryPerimeter=0;endArrow=none;endFill=0;fontSize=26;fontColor=#000000;" parent="1" source="AtQHAulMX-eyT-m-HNgf-142" target="AtQHAulMX-eyT-m-HNgf-165" edge="1">
          <mxGeometry relative="1" as="geometry"/>
        </mxCell>
        <mxCell id="AtQHAulMX-eyT-m-HNgf-157" style="edgeStyle=orthogonalEdgeStyle;rounded=0;orthogonalLoop=1;jettySize=auto;html=1;exitX=0;exitY=0.67;exitDx=0;exitDy=0;exitPerimeter=0;entryX=0.715;entryY=0.733;entryDx=0;entryDy=0;entryPerimeter=0;endArrow=none;endFill=0;fontSize=26;fontColor=#000000;" parent="1" source="AtQHAulMX-eyT-m-HNgf-142" target="AtQHAulMX-eyT-m-HNgf-165" edge="1">
          <mxGeometry relative="1" as="geometry"/>
        </mxCell>
        <mxCell id="AtQHAulMX-eyT-m-HNgf-158" style="edgeStyle=orthogonalEdgeStyle;rounded=0;orthogonalLoop=1;jettySize=auto;html=1;exitX=0;exitY=1;exitDx=0;exitDy=0;exitPerimeter=0;endArrow=none;endFill=0;fontSize=26;fontColor=#000000;" parent="1" source="AtQHAulMX-eyT-m-HNgf-142" edge="1">
          <mxGeometry relative="1" as="geometry">
            <Array as="points">
              <mxPoint x="4645" y="4335"/>
            </Array>
            <mxPoint x="4647" y="4110" as="targetPoint"/>
          </mxGeometry>
        </mxCell>
        <mxCell id="AtQHAulMX-eyT-m-HNgf-159" style="edgeStyle=orthogonalEdgeStyle;rounded=0;orthogonalLoop=1;jettySize=auto;html=1;entryX=0.611;entryY=6.857;entryDx=0;entryDy=0;entryPerimeter=0;endArrow=none;endFill=0;fontSize=26;fontColor=#000000;" parent="1" source="AtQHAulMX-eyT-m-HNgf-143" target="AtQHAulMX-eyT-m-HNgf-166" edge="1">
          <mxGeometry relative="1" as="geometry"/>
        </mxCell>
        <mxCell id="AtQHAulMX-eyT-m-HNgf-160" style="edgeStyle=orthogonalEdgeStyle;rounded=0;orthogonalLoop=1;jettySize=auto;html=1;exitX=1;exitY=0;exitDx=0;exitDy=0;exitPerimeter=0;entryX=0.4;entryY=-0.052;entryDx=0;entryDy=0;entryPerimeter=0;endArrow=none;endFill=0;fontSize=26;fontColor=#000000;" parent="1" source="AtQHAulMX-eyT-m-HNgf-145" target="AtQHAulMX-eyT-m-HNgf-165" edge="1">
          <mxGeometry relative="1" as="geometry">
            <Array as="points">
              <mxPoint x="5140" y="4460"/>
              <mxPoint x="4532" y="4460"/>
            </Array>
          </mxGeometry>
        </mxCell>
        <mxCell id="AtQHAulMX-eyT-m-HNgf-161" style="edgeStyle=orthogonalEdgeStyle;rounded=0;orthogonalLoop=1;jettySize=auto;html=1;exitX=1;exitY=0.33;exitDx=0;exitDy=0;exitPerimeter=0;endArrow=none;endFill=0;fontSize=26;fontColor=#000000;entryX=0.316;entryY=0.376;entryDx=0;entryDy=0;entryPerimeter=0;" parent="1" source="AtQHAulMX-eyT-m-HNgf-145" target="AtQHAulMX-eyT-m-HNgf-165" edge="1">
          <mxGeometry relative="1" as="geometry">
            <mxPoint x="4500" y="4570" as="targetPoint"/>
            <Array as="points">
              <mxPoint x="5160" y="4165"/>
              <mxPoint x="5160" y="4480"/>
              <mxPoint x="4496" y="4480"/>
            </Array>
          </mxGeometry>
        </mxCell>
        <mxCell id="AtQHAulMX-eyT-m-HNgf-162" style="edgeStyle=orthogonalEdgeStyle;rounded=0;orthogonalLoop=1;jettySize=auto;html=1;exitX=1;exitY=0.67;exitDx=0;exitDy=0;exitPerimeter=0;endArrow=none;endFill=0;fontSize=26;fontColor=#000000;entryX=0.242;entryY=0.686;entryDx=0;entryDy=0;entryPerimeter=0;" parent="1" source="AtQHAulMX-eyT-m-HNgf-145" target="AtQHAulMX-eyT-m-HNgf-165" edge="1">
          <mxGeometry relative="1" as="geometry">
            <mxPoint x="4440" y="4510" as="targetPoint"/>
            <Array as="points">
              <mxPoint x="5190" y="4185"/>
              <mxPoint x="5190" y="4510"/>
              <mxPoint x="4465" y="4510"/>
            </Array>
          </mxGeometry>
        </mxCell>
        <mxCell id="AtQHAulMX-eyT-m-HNgf-163" style="edgeStyle=orthogonalEdgeStyle;rounded=0;orthogonalLoop=1;jettySize=auto;html=1;exitX=1;exitY=1;exitDx=0;exitDy=0;exitPerimeter=0;entryX=0.179;entryY=1.09;entryDx=0;entryDy=0;entryPerimeter=0;endArrow=none;endFill=0;fontSize=26;fontColor=#000000;" parent="1" source="AtQHAulMX-eyT-m-HNgf-145" target="AtQHAulMX-eyT-m-HNgf-165" edge="1">
          <mxGeometry relative="1" as="geometry">
            <Array as="points">
              <mxPoint x="5220" y="4205"/>
              <mxPoint x="5220" y="4540"/>
              <mxPoint x="4437" y="4540"/>
            </Array>
          </mxGeometry>
        </mxCell>
        <mxCell id="AtQHAulMX-eyT-m-HNgf-164" style="edgeStyle=orthogonalEdgeStyle;rounded=0;orthogonalLoop=1;jettySize=auto;html=1;endArrow=none;endFill=0;fontSize=26;fontColor=#000000;entryX=0.121;entryY=2.571;entryDx=0;entryDy=0;entryPerimeter=0;" parent="1" target="AtQHAulMX-eyT-m-HNgf-166" edge="1">
          <mxGeometry relative="1" as="geometry">
            <mxPoint x="4400" y="4500" as="targetPoint"/>
            <mxPoint x="5082" y="4225" as="sourcePoint"/>
            <Array as="points">
              <mxPoint x="5083" y="4225"/>
              <mxPoint x="5253" y="4225"/>
              <mxPoint x="5253" y="4571"/>
              <mxPoint x="4412" y="4571"/>
            </Array>
          </mxGeometry>
        </mxCell>
        <mxCell id="AtQHAulMX-eyT-m-HNgf-165" value="" style="verticalLabelPosition=bottom;shadow=0;dashed=0;align=center;html=1;verticalAlign=top;shape=mxgraph.electrical.transmission.4_line_bus;fillColor=none;fontSize=19;fontColor=#000000;" parent="1" vertex="1">
          <mxGeometry x="4361.217948717948" y="4045" width="426.28205128205127" height="60" as="geometry"/>
        </mxCell>
        <mxCell id="AtQHAulMX-eyT-m-HNgf-166" value="" style="verticalLabelPosition=bottom;shadow=0;dashed=0;align=center;html=1;verticalAlign=top;shape=mxgraph.electrical.transmission.bus_width;pointerEvents=1;fillColor=none;fontSize=19;fontColor=#000000;" parent="1" vertex="1">
          <mxGeometry x="4360" y="4125" width="427.5" height="1" as="geometry"/>
        </mxCell>
        <mxCell id="AtQHAulMX-eyT-m-HNgf-167" value="1、存在闭环，加法器不断的将相加结果再次当作加数进行相加&lt;br&gt;&lt;div style=&quot;text-align: left&quot;&gt;&lt;span&gt;2、加法器的输出结果与“总线上的数据发生冲突”&lt;/span&gt;&lt;/div&gt;" style="text;html=1;align=center;verticalAlign=middle;resizable=0;points=[];autosize=1;fontSize=26;fontColor=#000000;" parent="1" vertex="1">
          <mxGeometry x="4443.62" y="4605" width="730" height="70" as="geometry"/>
        </mxCell>
        <mxCell id="AtQHAulMX-eyT-m-HNgf-168" value="" style="shape=flexArrow;endArrow=classic;html=1;fontSize=26;fontColor=#000000;strokeColor=#d79b00;fillColor=#ffe6cc;endWidth=87.14285714285715;endSize=4.428571428571429;" parent="1" edge="1">
          <mxGeometry width="50" height="50" relative="1" as="geometry">
            <mxPoint x="4449.58" y="4210" as="sourcePoint"/>
            <mxPoint x="4449.58" y="4130" as="targetPoint"/>
            <Array as="points">
              <mxPoint x="4449.29" y="4180"/>
            </Array>
          </mxGeometry>
        </mxCell>
        <mxCell id="AtQHAulMX-eyT-m-HNgf-169" value="" style="shape=flexArrow;endArrow=classic;html=1;fontSize=26;fontColor=#000000;strokeColor=#d79b00;fillColor=#ffe6cc;endWidth=87.14285714285715;endSize=4.428571428571429;" parent="1" edge="1">
          <mxGeometry width="50" height="50" relative="1" as="geometry">
            <mxPoint x="4349.119999999999" y="4090" as="sourcePoint"/>
            <mxPoint x="4421.119999999999" y="4090" as="targetPoint"/>
            <Array as="points">
              <mxPoint x="4349.12" y="4090"/>
            </Array>
          </mxGeometry>
        </mxCell>
        <mxCell id="AtQHAulMX-eyT-m-HNgf-170" value="" style="endArrow=none;html=1;strokeColor=#FFA98A;fontSize=26;fontColor=#000000;dashed=1;strokeWidth=9;" parent="1" edge="1">
          <mxGeometry width="50" height="50" relative="1" as="geometry">
            <mxPoint x="4519.999999999998" y="4140" as="sourcePoint"/>
            <mxPoint x="4519.999999999998" y="4140" as="targetPoint"/>
            <Array as="points">
              <mxPoint x="4520" y="4100"/>
              <mxPoint x="4700" y="4100"/>
              <mxPoint x="4700" y="4290"/>
              <mxPoint x="4930" y="4290"/>
              <mxPoint x="5050" y="4210"/>
              <mxPoint x="5160" y="4210"/>
              <mxPoint x="5150" y="4470"/>
              <mxPoint x="4520" y="4470"/>
            </Array>
          </mxGeometry>
        </mxCell>
        <mxCell id="AtQHAulMX-eyT-m-HNgf-171" value="" style="group" parent="1" vertex="1" connectable="0">
          <mxGeometry x="6270.88" y="4030" width="140" height="330" as="geometry"/>
        </mxCell>
        <mxCell id="AtQHAulMX-eyT-m-HNgf-172" value="" style="group" parent="AtQHAulMX-eyT-m-HNgf-171" vertex="1" connectable="0">
          <mxGeometry width="140" height="330" as="geometry"/>
        </mxCell>
        <mxCell id="AtQHAulMX-eyT-m-HNgf-173" value="" style="endArrow=none;html=1;fontSize=19;fontColor=#000000;" parent="AtQHAulMX-eyT-m-HNgf-172" edge="1">
          <mxGeometry width="50" height="50" relative="1" as="geometry">
            <mxPoint x="140" y="264" as="sourcePoint"/>
            <mxPoint x="140" y="66" as="targetPoint"/>
          </mxGeometry>
        </mxCell>
        <mxCell id="AtQHAulMX-eyT-m-HNgf-174" value="" style="endArrow=none;html=1;fontSize=19;fontColor=#000000;" parent="AtQHAulMX-eyT-m-HNgf-172" edge="1">
          <mxGeometry width="50" height="50" relative="1" as="geometry">
            <mxPoint x="140" y="66" as="sourcePoint"/>
            <mxPoint as="targetPoint"/>
          </mxGeometry>
        </mxCell>
        <mxCell id="AtQHAulMX-eyT-m-HNgf-175" value="" style="endArrow=none;html=1;fontSize=19;fontColor=#000000;" parent="AtQHAulMX-eyT-m-HNgf-172" edge="1">
          <mxGeometry width="50" height="50" relative="1" as="geometry">
            <mxPoint x="140" y="264" as="sourcePoint"/>
            <mxPoint y="330" as="targetPoint"/>
          </mxGeometry>
        </mxCell>
        <mxCell id="AtQHAulMX-eyT-m-HNgf-176" value="" style="endArrow=none;html=1;fontSize=19;fontColor=#000000;" parent="AtQHAulMX-eyT-m-HNgf-172" edge="1">
          <mxGeometry width="50" height="50" relative="1" as="geometry">
            <mxPoint x="69.125" y="198" as="sourcePoint"/>
            <mxPoint x="69.37874999999997" y="132" as="targetPoint"/>
          </mxGeometry>
        </mxCell>
        <mxCell id="AtQHAulMX-eyT-m-HNgf-177" value="" style="endArrow=none;html=1;fontSize=19;fontColor=#000000;" parent="AtQHAulMX-eyT-m-HNgf-172" edge="1">
          <mxGeometry width="50" height="50" relative="1" as="geometry">
            <mxPoint y="90.75" as="sourcePoint"/>
            <mxPoint x="70" y="132" as="targetPoint"/>
          </mxGeometry>
        </mxCell>
        <mxCell id="AtQHAulMX-eyT-m-HNgf-178" value="" style="endArrow=none;html=1;fontSize=19;fontColor=#000000;" parent="AtQHAulMX-eyT-m-HNgf-172" edge="1">
          <mxGeometry width="50" height="50" relative="1" as="geometry">
            <mxPoint x="-3" y="90.75" as="sourcePoint"/>
            <mxPoint x="-3" as="targetPoint"/>
          </mxGeometry>
        </mxCell>
        <mxCell id="AtQHAulMX-eyT-m-HNgf-179" value="" style="endArrow=none;html=1;fontSize=19;fontColor=#000000;" parent="AtQHAulMX-eyT-m-HNgf-172" edge="1">
          <mxGeometry width="50" height="50" relative="1" as="geometry">
            <mxPoint x="1.3125" y="330" as="sourcePoint"/>
            <mxPoint x="1.3125" y="239.25" as="targetPoint"/>
          </mxGeometry>
        </mxCell>
        <mxCell id="AtQHAulMX-eyT-m-HNgf-180" value="" style="endArrow=none;html=1;fontSize=19;fontColor=#000000;" parent="AtQHAulMX-eyT-m-HNgf-172" edge="1">
          <mxGeometry width="50" height="50" relative="1" as="geometry">
            <mxPoint x="70" y="198" as="sourcePoint"/>
            <mxPoint y="239.25" as="targetPoint"/>
          </mxGeometry>
        </mxCell>
        <mxCell id="AtQHAulMX-eyT-m-HNgf-181" value="&lt;font style=&quot;font-size: 36px&quot;&gt;加&lt;br&gt;法&lt;br&gt;器&lt;/font&gt;" style="text;html=1;align=center;verticalAlign=middle;resizable=0;points=[];autosize=1;fontSize=19;fontColor=#000000;" parent="AtQHAulMX-eyT-m-HNgf-172" vertex="1">
          <mxGeometry x="80" y="110" width="50" height="90" as="geometry"/>
        </mxCell>
        <mxCell id="AtQHAulMX-eyT-m-HNgf-182" value="" style="group" parent="1" vertex="1" connectable="0">
          <mxGeometry x="6190.88" y="4275" width="78" height="81" as="geometry"/>
        </mxCell>
        <mxCell id="AtQHAulMX-eyT-m-HNgf-183" value="" style="verticalLabelPosition=bottom;shadow=0;dashed=0;align=center;html=1;verticalAlign=top;shape=mxgraph.electrical.transmission.4_line_bus;fillColor=none;fontSize=19;fontColor=#000000;" parent="AtQHAulMX-eyT-m-HNgf-182" vertex="1">
          <mxGeometry x="2" width="76" height="60" as="geometry"/>
        </mxCell>
        <mxCell id="AtQHAulMX-eyT-m-HNgf-184" value="" style="verticalLabelPosition=bottom;shadow=0;dashed=0;align=center;html=1;verticalAlign=top;shape=mxgraph.electrical.transmission.bus_width;pointerEvents=1;fillColor=none;fontSize=19;fontColor=#000000;" parent="AtQHAulMX-eyT-m-HNgf-182" vertex="1">
          <mxGeometry y="80" width="78" height="1" as="geometry"/>
        </mxCell>
        <mxCell id="AtQHAulMX-eyT-m-HNgf-185" value="" style="group" parent="1" vertex="1" connectable="0">
          <mxGeometry x="5580.1" y="4049" width="70.5" height="81" as="geometry"/>
        </mxCell>
        <mxCell id="AtQHAulMX-eyT-m-HNgf-186" value="" style="verticalLabelPosition=bottom;shadow=0;dashed=0;align=center;html=1;verticalAlign=top;shape=mxgraph.electrical.transmission.4_line_bus;fillColor=none;fontSize=19;fontColor=#000000;" parent="AtQHAulMX-eyT-m-HNgf-185" vertex="1">
          <mxGeometry x="1.8076923076923077" width="68.6923076923077" height="60" as="geometry"/>
        </mxCell>
        <mxCell id="AtQHAulMX-eyT-m-HNgf-187" value="" style="verticalLabelPosition=bottom;shadow=0;dashed=0;align=center;html=1;verticalAlign=top;shape=mxgraph.electrical.transmission.bus_width;pointerEvents=1;fillColor=none;fontSize=19;fontColor=#000000;" parent="AtQHAulMX-eyT-m-HNgf-185" vertex="1">
          <mxGeometry y="80" width="70.5" height="1" as="geometry"/>
        </mxCell>
        <mxCell id="AtQHAulMX-eyT-m-HNgf-188" style="edgeStyle=orthogonalEdgeStyle;rounded=0;orthogonalLoop=1;jettySize=auto;html=1;exitX=0.5;exitY=0;exitDx=0;exitDy=0;endArrow=none;endFill=0;fontSize=26;fontColor=#000000;" parent="1" source="AtQHAulMX-eyT-m-HNgf-189" edge="1">
          <mxGeometry relative="1" as="geometry">
            <mxPoint x="6239.5" y="3970" as="targetPoint"/>
            <Array as="points">
              <mxPoint x="6170.88" y="3970"/>
            </Array>
          </mxGeometry>
        </mxCell>
        <mxCell id="AtQHAulMX-eyT-m-HNgf-189" value="R&lt;br&gt;A" style="rounded=0;whiteSpace=wrap;html=1;fillColor=none;fontSize=26;fontColor=#000000;" parent="1" vertex="1">
          <mxGeometry x="6138.88" y="4020" width="59" height="130" as="geometry"/>
        </mxCell>
        <mxCell id="AtQHAulMX-eyT-m-HNgf-190" value="" style="pointerEvents=1;verticalLabelPosition=bottom;shadow=0;dashed=0;align=center;html=1;verticalAlign=top;shape=mxgraph.electrical.electro-mechanical.pushbutton_make;fillColor=none;fontSize=26;fontColor=#000000;" parent="1" vertex="1">
          <mxGeometry x="6239.63" y="3920" width="75" height="53" as="geometry"/>
        </mxCell>
        <mxCell id="AtQHAulMX-eyT-m-HNgf-191" value="Kra" style="text;html=1;align=center;verticalAlign=middle;resizable=0;points=[];autosize=1;fontSize=26;fontColor=#000000;" parent="1" vertex="1">
          <mxGeometry x="6254.63" y="3880" width="60" height="40" as="geometry"/>
        </mxCell>
        <mxCell id="AtQHAulMX-eyT-m-HNgf-192" style="edgeStyle=orthogonalEdgeStyle;rounded=0;orthogonalLoop=1;jettySize=auto;html=1;exitX=0;exitY=0;exitDx=0;exitDy=0;exitPerimeter=0;entryX=0.838;entryY=0.017;entryDx=0;entryDy=0;entryPerimeter=0;endArrow=none;endFill=0;fontSize=26;fontColor=#000000;" parent="1" source="AtQHAulMX-eyT-m-HNgf-183" target="AtQHAulMX-eyT-m-HNgf-202" edge="1">
          <mxGeometry relative="1" as="geometry">
            <Array as="points">
              <mxPoint x="6063" y="4275"/>
              <mxPoint x="6063" y="4047"/>
            </Array>
          </mxGeometry>
        </mxCell>
        <mxCell id="AtQHAulMX-eyT-m-HNgf-193" style="edgeStyle=orthogonalEdgeStyle;rounded=0;orthogonalLoop=1;jettySize=auto;html=1;exitX=0;exitY=0.33;exitDx=0;exitDy=0;exitPerimeter=0;entryX=0.775;entryY=0.376;entryDx=0;entryDy=0;entryPerimeter=0;endArrow=none;endFill=0;fontSize=26;fontColor=#000000;" parent="1" source="AtQHAulMX-eyT-m-HNgf-183" target="AtQHAulMX-eyT-m-HNgf-202" edge="1">
          <mxGeometry relative="1" as="geometry"/>
        </mxCell>
        <mxCell id="AtQHAulMX-eyT-m-HNgf-194" style="edgeStyle=orthogonalEdgeStyle;rounded=0;orthogonalLoop=1;jettySize=auto;html=1;exitX=0;exitY=0.67;exitDx=0;exitDy=0;exitPerimeter=0;entryX=0.715;entryY=0.733;entryDx=0;entryDy=0;entryPerimeter=0;endArrow=none;endFill=0;fontSize=26;fontColor=#000000;" parent="1" source="AtQHAulMX-eyT-m-HNgf-183" target="AtQHAulMX-eyT-m-HNgf-202" edge="1">
          <mxGeometry relative="1" as="geometry"/>
        </mxCell>
        <mxCell id="AtQHAulMX-eyT-m-HNgf-195" style="edgeStyle=orthogonalEdgeStyle;rounded=0;orthogonalLoop=1;jettySize=auto;html=1;exitX=0;exitY=1;exitDx=0;exitDy=0;exitPerimeter=0;endArrow=none;endFill=0;fontSize=26;fontColor=#000000;" parent="1" source="AtQHAulMX-eyT-m-HNgf-183" edge="1">
          <mxGeometry relative="1" as="geometry">
            <Array as="points">
              <mxPoint x="5993.38" y="4335"/>
            </Array>
            <mxPoint x="5994.5" y="4110" as="targetPoint"/>
          </mxGeometry>
        </mxCell>
        <mxCell id="AtQHAulMX-eyT-m-HNgf-196" style="edgeStyle=orthogonalEdgeStyle;rounded=0;orthogonalLoop=1;jettySize=auto;html=1;entryX=0.611;entryY=6.857;entryDx=0;entryDy=0;entryPerimeter=0;endArrow=none;endFill=0;fontSize=26;fontColor=#000000;" parent="1" source="AtQHAulMX-eyT-m-HNgf-184" target="AtQHAulMX-eyT-m-HNgf-203" edge="1">
          <mxGeometry relative="1" as="geometry"/>
        </mxCell>
        <mxCell id="AtQHAulMX-eyT-m-HNgf-197" style="edgeStyle=orthogonalEdgeStyle;rounded=0;orthogonalLoop=1;jettySize=auto;html=1;entryX=0.4;entryY=-0.052;entryDx=0;entryDy=0;entryPerimeter=0;endArrow=none;endFill=0;fontSize=26;fontColor=#000000;" parent="1" target="AtQHAulMX-eyT-m-HNgf-202" edge="1">
          <mxGeometry relative="1" as="geometry">
            <Array as="points">
              <mxPoint x="6852.5" y="4145"/>
              <mxPoint x="6852.5" y="4400"/>
              <mxPoint x="5879.5" y="4400"/>
            </Array>
            <mxPoint x="6734.5" y="4145" as="sourcePoint"/>
          </mxGeometry>
        </mxCell>
        <mxCell id="AtQHAulMX-eyT-m-HNgf-198" style="edgeStyle=orthogonalEdgeStyle;rounded=0;orthogonalLoop=1;jettySize=auto;html=1;endArrow=none;endFill=0;fontSize=26;fontColor=#000000;entryX=0.316;entryY=0.376;entryDx=0;entryDy=0;entryPerimeter=0;" parent="1" target="AtQHAulMX-eyT-m-HNgf-202" edge="1">
          <mxGeometry relative="1" as="geometry">
            <mxPoint x="5848.38" y="4570" as="targetPoint"/>
            <Array as="points">
              <mxPoint x="6882.5" y="4165"/>
              <mxPoint x="6882.5" y="4430"/>
              <mxPoint x="5844.5" y="4430"/>
            </Array>
            <mxPoint x="6734.5" y="4165" as="sourcePoint"/>
          </mxGeometry>
        </mxCell>
        <mxCell id="AtQHAulMX-eyT-m-HNgf-199" style="edgeStyle=orthogonalEdgeStyle;rounded=0;orthogonalLoop=1;jettySize=auto;html=1;endArrow=none;endFill=0;fontSize=26;fontColor=#000000;entryX=0.242;entryY=0.686;entryDx=0;entryDy=0;entryPerimeter=0;" parent="1" target="AtQHAulMX-eyT-m-HNgf-202" edge="1">
          <mxGeometry relative="1" as="geometry">
            <mxPoint x="5788.38" y="4510" as="targetPoint"/>
            <Array as="points">
              <mxPoint x="6912.5" y="4185"/>
              <mxPoint x="6912.5" y="4460"/>
              <mxPoint x="5812.5" y="4460"/>
            </Array>
            <mxPoint x="6734.5" y="4185" as="sourcePoint"/>
          </mxGeometry>
        </mxCell>
        <mxCell id="AtQHAulMX-eyT-m-HNgf-200" style="edgeStyle=orthogonalEdgeStyle;rounded=0;orthogonalLoop=1;jettySize=auto;html=1;entryX=0.179;entryY=1.09;entryDx=0;entryDy=0;entryPerimeter=0;endArrow=none;endFill=0;fontSize=26;fontColor=#000000;" parent="1" target="AtQHAulMX-eyT-m-HNgf-202" edge="1">
          <mxGeometry relative="1" as="geometry">
            <Array as="points">
              <mxPoint x="6942.5" y="4205"/>
              <mxPoint x="6942.5" y="4490"/>
              <mxPoint x="5785.5" y="4490"/>
            </Array>
            <mxPoint x="6734.5" y="4205" as="sourcePoint"/>
          </mxGeometry>
        </mxCell>
        <mxCell id="AtQHAulMX-eyT-m-HNgf-201" style="edgeStyle=orthogonalEdgeStyle;rounded=0;orthogonalLoop=1;jettySize=auto;html=1;endArrow=none;endFill=0;fontSize=26;fontColor=#000000;entryX=0.121;entryY=2.571;entryDx=0;entryDy=0;entryPerimeter=0;" parent="1" target="AtQHAulMX-eyT-m-HNgf-203" edge="1">
          <mxGeometry relative="1" as="geometry">
            <mxPoint x="5748.38" y="4500" as="targetPoint"/>
            <mxPoint x="6734.5" y="4225" as="sourcePoint"/>
            <Array as="points">
              <mxPoint x="6972.5" y="4225"/>
              <mxPoint x="6972.5" y="4520"/>
              <mxPoint x="5759.5" y="4520"/>
            </Array>
          </mxGeometry>
        </mxCell>
        <mxCell id="AtQHAulMX-eyT-m-HNgf-202" value="" style="verticalLabelPosition=bottom;shadow=0;dashed=0;align=center;html=1;verticalAlign=top;shape=mxgraph.electrical.transmission.4_line_bus;fillColor=none;fontSize=19;fontColor=#000000;" parent="1" vertex="1">
          <mxGeometry x="5709.597948717948" y="4045" width="426.28205128205127" height="60" as="geometry"/>
        </mxCell>
        <mxCell id="AtQHAulMX-eyT-m-HNgf-203" value="" style="verticalLabelPosition=bottom;shadow=0;dashed=0;align=center;html=1;verticalAlign=top;shape=mxgraph.electrical.transmission.bus_width;pointerEvents=1;fillColor=none;fontSize=19;fontColor=#000000;" parent="1" vertex="1">
          <mxGeometry x="5708.38" y="4125" width="427.5" height="1" as="geometry"/>
        </mxCell>
        <mxCell id="AtQHAulMX-eyT-m-HNgf-204" value="" style="group" parent="1" vertex="1" connectable="0">
          <mxGeometry x="6562.5" y="4150" width="110" height="81" as="geometry"/>
        </mxCell>
        <mxCell id="AtQHAulMX-eyT-m-HNgf-205" value="" style="verticalLabelPosition=bottom;shadow=0;dashed=0;align=center;html=1;verticalAlign=top;shape=mxgraph.electrical.transmission.4_line_bus;fillColor=none;fontSize=19;fontColor=#000000;" parent="AtQHAulMX-eyT-m-HNgf-204" vertex="1">
          <mxGeometry x="2.820512820512821" width="107.17948717948718" height="60" as="geometry"/>
        </mxCell>
        <mxCell id="AtQHAulMX-eyT-m-HNgf-206" value="" style="verticalLabelPosition=bottom;shadow=0;dashed=0;align=center;html=1;verticalAlign=top;shape=mxgraph.electrical.transmission.bus_width;pointerEvents=1;fillColor=none;fontSize=19;fontColor=#000000;" parent="AtQHAulMX-eyT-m-HNgf-204" vertex="1">
          <mxGeometry y="80" width="110.00000000000001" height="1" as="geometry"/>
        </mxCell>
        <mxCell id="AtQHAulMX-eyT-m-HNgf-207" value="T&lt;br&gt;R" style="rounded=0;whiteSpace=wrap;html=1;fillColor=none;fontSize=26;fontColor=#000000;" parent="1" vertex="1">
          <mxGeometry x="6502.5" y="4119.5" width="59.5" height="130" as="geometry"/>
        </mxCell>
        <mxCell id="AtQHAulMX-eyT-m-HNgf-208" value="G&lt;br&gt;B" style="rounded=0;whiteSpace=wrap;html=1;fillColor=none;fontSize=26;fontColor=#000000;" parent="1" vertex="1">
          <mxGeometry x="6672.75" y="4119" width="59.5" height="130" as="geometry"/>
        </mxCell>
        <mxCell id="AtQHAulMX-eyT-m-HNgf-209" value="" style="group" parent="1" vertex="1" connectable="0">
          <mxGeometry x="6413.5" y="4154" width="90" height="81" as="geometry"/>
        </mxCell>
        <mxCell id="AtQHAulMX-eyT-m-HNgf-210" value="" style="verticalLabelPosition=bottom;shadow=0;dashed=0;align=center;html=1;verticalAlign=top;shape=mxgraph.electrical.transmission.4_line_bus;fillColor=none;fontSize=19;fontColor=#000000;" parent="AtQHAulMX-eyT-m-HNgf-209" vertex="1">
          <mxGeometry x="2.307692307692308" width="87.6923076923077" height="60" as="geometry"/>
        </mxCell>
        <mxCell id="AtQHAulMX-eyT-m-HNgf-211" value="" style="verticalLabelPosition=bottom;shadow=0;dashed=0;align=center;html=1;verticalAlign=top;shape=mxgraph.electrical.transmission.bus_width;pointerEvents=1;fillColor=none;fontSize=19;fontColor=#000000;" parent="AtQHAulMX-eyT-m-HNgf-209" vertex="1">
          <mxGeometry y="80" width="90" height="1" as="geometry"/>
        </mxCell>
        <mxCell id="AtQHAulMX-eyT-m-HNgf-212" style="edgeStyle=orthogonalEdgeStyle;rounded=0;orthogonalLoop=1;jettySize=auto;html=1;exitX=0.5;exitY=0;exitDx=0;exitDy=0;endArrow=none;endFill=0;fontSize=26;fontColor=#000000;" parent="1" edge="1">
          <mxGeometry relative="1" as="geometry">
            <mxPoint x="6604.5" y="4070" as="targetPoint"/>
            <Array as="points">
              <mxPoint x="6531.81" y="4069.29"/>
            </Array>
            <mxPoint x="6529.5" y="4120" as="sourcePoint"/>
          </mxGeometry>
        </mxCell>
        <mxCell id="AtQHAulMX-eyT-m-HNgf-213" value="" style="pointerEvents=1;verticalLabelPosition=bottom;shadow=0;dashed=0;align=center;html=1;verticalAlign=top;shape=mxgraph.electrical.electro-mechanical.pushbutton_make;fillColor=none;fontSize=26;fontColor=#000000;" parent="1" vertex="1">
          <mxGeometry x="6600.56" y="4019.29" width="75" height="53" as="geometry"/>
        </mxCell>
        <mxCell id="AtQHAulMX-eyT-m-HNgf-214" value="Ktr" style="text;html=1;align=center;verticalAlign=middle;resizable=0;points=[];autosize=1;fontSize=26;fontColor=#000000;" parent="1" vertex="1">
          <mxGeometry x="6620.56" y="3979.29" width="50" height="40" as="geometry"/>
        </mxCell>
        <mxCell id="AtQHAulMX-eyT-m-HNgf-215" style="edgeStyle=orthogonalEdgeStyle;rounded=0;orthogonalLoop=1;jettySize=auto;html=1;exitX=0.5;exitY=0;exitDx=0;exitDy=0;endArrow=none;endFill=0;fontSize=26;fontColor=#000000;" parent="1" edge="1">
          <mxGeometry relative="1" as="geometry">
            <mxPoint x="6774.5" y="4065" as="targetPoint"/>
            <Array as="points">
              <mxPoint x="6704.88" y="4065.9300000000003"/>
            </Array>
            <mxPoint x="6704.5" y="4115" as="sourcePoint"/>
          </mxGeometry>
        </mxCell>
        <mxCell id="AtQHAulMX-eyT-m-HNgf-216" value="" style="pointerEvents=1;verticalLabelPosition=bottom;shadow=0;dashed=0;align=center;html=1;verticalAlign=top;shape=mxgraph.electrical.electro-mechanical.pushbutton_make;fillColor=none;fontSize=26;fontColor=#000000;" parent="1" vertex="1">
          <mxGeometry x="6773.63" y="4015.9300000000003" width="75" height="53" as="geometry"/>
        </mxCell>
        <mxCell id="AtQHAulMX-eyT-m-HNgf-217" value="Kgb" style="text;html=1;align=center;verticalAlign=middle;resizable=0;points=[];autosize=1;fontSize=26;fontColor=#000000;" parent="1" vertex="1">
          <mxGeometry x="6788.63" y="3975.9300000000003" width="60" height="40" as="geometry"/>
        </mxCell>
        <mxCell id="AtQHAulMX-eyT-m-HNgf-218" value="G&lt;br&gt;A" style="rounded=0;whiteSpace=wrap;html=1;fillColor=none;fontSize=26;fontColor=#000000;" parent="1" vertex="1">
          <mxGeometry x="5650.6" y="4017" width="59" height="130" as="geometry"/>
        </mxCell>
        <mxCell id="AtQHAulMX-eyT-m-HNgf-219" style="edgeStyle=orthogonalEdgeStyle;rounded=0;orthogonalLoop=1;jettySize=auto;html=1;exitX=0.5;exitY=0;exitDx=0;exitDy=0;endArrow=none;endFill=0;fontSize=26;fontColor=#000000;" parent="1" edge="1">
          <mxGeometry relative="1" as="geometry">
            <mxPoint x="5754.5" y="3970" as="targetPoint"/>
            <Array as="points">
              <mxPoint x="5682.75" y="3969.58"/>
            </Array>
            <mxPoint x="5679.5" y="4020" as="sourcePoint"/>
          </mxGeometry>
        </mxCell>
        <mxCell id="AtQHAulMX-eyT-m-HNgf-220" value="" style="pointerEvents=1;verticalLabelPosition=bottom;shadow=0;dashed=0;align=center;html=1;verticalAlign=top;shape=mxgraph.electrical.electro-mechanical.pushbutton_make;fillColor=none;fontSize=26;fontColor=#000000;" parent="1" vertex="1">
          <mxGeometry x="5751.5" y="3919.58" width="75" height="53" as="geometry"/>
        </mxCell>
        <mxCell id="AtQHAulMX-eyT-m-HNgf-221" value="Kga" style="text;html=1;align=center;verticalAlign=middle;resizable=0;points=[];autosize=1;fontSize=26;fontColor=#000000;" parent="1" vertex="1">
          <mxGeometry x="5766.5" y="3879.58" width="60" height="40" as="geometry"/>
        </mxCell>
        <mxCell id="AtQHAulMX-eyT-m-HNgf-222" value="" style="group" parent="1" vertex="1" connectable="0">
          <mxGeometry x="6198.88" y="4043" width="70.5" height="81" as="geometry"/>
        </mxCell>
        <mxCell id="AtQHAulMX-eyT-m-HNgf-223" value="" style="verticalLabelPosition=bottom;shadow=0;dashed=0;align=center;html=1;verticalAlign=top;shape=mxgraph.electrical.transmission.4_line_bus;fillColor=none;fontSize=19;fontColor=#000000;" parent="AtQHAulMX-eyT-m-HNgf-222" vertex="1">
          <mxGeometry x="1.8076923076923077" width="68.6923076923077" height="60" as="geometry"/>
        </mxCell>
        <mxCell id="AtQHAulMX-eyT-m-HNgf-224" value="" style="verticalLabelPosition=bottom;shadow=0;dashed=0;align=center;html=1;verticalAlign=top;shape=mxgraph.electrical.transmission.bus_width;pointerEvents=1;fillColor=none;fontSize=19;fontColor=#000000;" parent="AtQHAulMX-eyT-m-HNgf-222" vertex="1">
          <mxGeometry y="80" width="70.5" height="1" as="geometry"/>
        </mxCell>
        <mxCell id="AtQHAulMX-eyT-m-HNgf-225" value="加数1" style="text;html=1;align=center;verticalAlign=middle;resizable=0;points=[];autosize=1;fontSize=26;fontColor=#000000;" parent="1" vertex="1">
          <mxGeometry x="5500" y="4065" width="80" height="40" as="geometry"/>
        </mxCell>
        <mxCell id="AtQHAulMX-eyT-m-HNgf-226" value="1、GA\GB是两组继电器，每组继电器有5个开关，每个开关控制一条线路的开关&lt;br&gt;&lt;div style=&quot;text-align: left&quot;&gt;&lt;span&gt;2、GA,GB只要有一个被按下，则不会发生数据冲突&lt;/span&gt;&lt;/div&gt;&lt;div style=&quot;text-align: left&quot;&gt;&lt;span&gt;3、TR也是一个边沿寄存器，在开关没有按下，数据是不会无限循环的&lt;/span&gt;&lt;/div&gt;" style="text;html=1;align=center;verticalAlign=middle;resizable=0;points=[];autosize=1;fontSize=26;fontColor=#000000;" parent="1" vertex="1">
          <mxGeometry x="5600" y="4590" width="930" height="100" as="geometry"/>
        </mxCell>
        <mxCell id="AtQHAulMX-eyT-m-HNgf-232" value="&lt;span style=&quot;font-family: &amp;#34;verdana&amp;#34; , &amp;#34;arial&amp;#34; , &amp;#34;tahoma&amp;#34; ; letter-spacing: 5px ; white-space: normal ; background-color: rgb(255 , 255 , 255)&quot;&gt;&lt;font style=&quot;font-size: 25px&quot; color=&quot;#ff0000&quot;&gt;①②③&lt;/font&gt;&lt;/span&gt;&lt;span style=&quot;color: rgb(255 , 0 , 0) ; font-family: &amp;#34;verdana&amp;#34; , &amp;#34;arial&amp;#34; , &amp;#34;tahoma&amp;#34; ; font-size: 25px ; letter-spacing: 5px ; white-space: normal ; background-color: rgb(255 , 255 , 255)&quot;&gt;④&lt;/span&gt;&lt;span style=&quot;font-family: &amp;#34;verdana&amp;#34; , &amp;#34;arial&amp;#34; , &amp;#34;tahoma&amp;#34; ; letter-spacing: 5px ; white-space: normal ; background-color: rgb(255 , 255 , 255)&quot;&gt;&lt;font style=&quot;font-size: 25px&quot; color=&quot;#ff0000&quot;&gt;⑤⑥⑦⑧⑨⑩⑪⑫⑬⑭⑮⑯⑰⑱⑲⑳&lt;/font&gt;&lt;/span&gt;" style="text;html=1;align=center;verticalAlign=middle;resizable=0;points=[];autosize=1;" parent="1" vertex="1">
          <mxGeometry x="5330" y="3520" width="620" height="30" as="geometry"/>
        </mxCell>
        <mxCell id="AtQHAulMX-eyT-m-HNgf-233" value="&lt;span style=&quot;color: rgb(255 , 0 , 0) ; font-family: &amp;#34;verdana&amp;#34; , &amp;#34;arial&amp;#34; , &amp;#34;tahoma&amp;#34; ; font-size: 25px ; letter-spacing: 5px ; text-align: center ; white-space: normal ; background-color: rgb(255 , 255 , 255)&quot;&gt;①&lt;/span&gt;" style="text;html=1;" parent="1" vertex="1">
          <mxGeometry x="5600" y="4010" width="40" height="30" as="geometry"/>
        </mxCell>
        <mxCell id="AtQHAulMX-eyT-m-HNgf-234" value="&lt;span style=&quot;color: rgb(255 , 0 , 0) ; font-family: &amp;#34;verdana&amp;#34; , &amp;#34;arial&amp;#34; , &amp;#34;tahoma&amp;#34; ; font-size: 25px ; letter-spacing: 5px ; white-space: normal ; background-color: rgb(255 , 255 , 255)&quot;&gt;②&lt;/span&gt;" style="text;html=1;align=center;verticalAlign=middle;resizable=0;points=[];autosize=1;" parent="1" vertex="1">
          <mxGeometry x="6080" y="4013" width="50" height="30" as="geometry"/>
        </mxCell>
        <mxCell id="AtQHAulMX-eyT-m-HNgf-235" value="&lt;span style=&quot;color: rgb(255 , 0 , 0) ; font-family: &amp;#34;verdana&amp;#34; , &amp;#34;arial&amp;#34; , &amp;#34;tahoma&amp;#34; ; font-size: 25px ; letter-spacing: 5px ; white-space: normal ; background-color: rgb(255 , 255 , 255)&quot;&gt;③&lt;/span&gt;" style="text;html=1;align=center;verticalAlign=middle;resizable=0;points=[];autosize=1;" parent="1" vertex="1">
          <mxGeometry x="6212.5" y="4010" width="50" height="30" as="geometry"/>
        </mxCell>
        <mxCell id="AtQHAulMX-eyT-m-HNgf-236" value="&lt;span style=&quot;color: rgb(255 , 0 , 0) ; font-family: &amp;#34;verdana&amp;#34; , &amp;#34;arial&amp;#34; , &amp;#34;tahoma&amp;#34; ; font-size: 25px ; letter-spacing: 5px ; white-space: normal ; background-color: rgb(255 , 255 , 255)&quot;&gt;④&lt;/span&gt;" style="text;html=1;align=center;verticalAlign=middle;resizable=0;points=[];autosize=1;" parent="1" vertex="1">
          <mxGeometry x="6204.88" y="4245" width="50" height="30" as="geometry"/>
        </mxCell>
        <mxCell id="AtQHAulMX-eyT-m-HNgf-237" value="10+8+6" style="text;html=1;align=center;verticalAlign=middle;resizable=0;points=[];autosize=1;fontFamily=Helvetica;fontSize=22;" parent="1" vertex="1">
          <mxGeometry x="5520" y="3790" width="90" height="30" as="geometry"/>
        </mxCell>
        <mxCell id="AtQHAulMX-eyT-m-HNgf-239" value="&lt;span style=&quot;color: rgba(0 , 0 , 0 , 0) ; font-family: monospace ; font-size: 0px&quot;&gt;%3CmxGraphModel%3E%3Croot%3E%3CmxCell%20id%3D%220%22%2F%3E%3CmxCell%20id%3D%221%22%20parent%3D%220%22%2F%3E%3CmxCell%20id%3D%222%22%20value%3D%22%E2%91%A4%22%20style%3D%22text%3Bhtml%3D1%3BfontSize%3D22%3BfontFamily%3DHelvetica%3B%22%20vertex%3D%221%22%20parent%3D%221%22%3E%3CmxGeometry%20x%3D%226470%22%20y%3D%224620%22%20width%3D%2250%22%20height%3D%2240%22%20as%3D%22geometry%22%2F%3E%3C%2FmxCell%3E%3C%2Froot%3E%3C%2FmxGraphModel%3E&lt;/span&gt;" style="text;html=1;align=center;verticalAlign=middle;resizable=0;points=[];autosize=1;fontSize=22;fontFamily=Helvetica;" parent="1" vertex="1">
          <mxGeometry x="6560" y="3827" width="20" height="40" as="geometry"/>
        </mxCell>
        <mxCell id="AtQHAulMX-eyT-m-HNgf-240" value="&lt;span style=&quot;color: rgb(255 , 0 , 0) ; font-family: &amp;#34;verdana&amp;#34; , &amp;#34;arial&amp;#34; , &amp;#34;tahoma&amp;#34; ; font-size: 25px ; letter-spacing: 5px ; white-space: normal ; background-color: rgb(255 , 255 , 255)&quot;&gt;⑤&lt;/span&gt;" style="text;html=1;align=center;verticalAlign=middle;resizable=0;points=[];autosize=1;fontSize=22;fontFamily=Helvetica;" parent="1" vertex="1">
          <mxGeometry x="6433.5" y="4115" width="50" height="30" as="geometry"/>
        </mxCell>
        <mxCell id="AtQHAulMX-eyT-m-HNgf-244" value="&lt;span style=&quot;color: rgb(255 , 0 , 0) ; font-family: &amp;#34;verdana&amp;#34; , &amp;#34;arial&amp;#34; , &amp;#34;tahoma&amp;#34; ; font-size: 25px ; letter-spacing: 5px ; white-space: normal ; background-color: rgb(255 , 255 , 255)&quot;&gt;⑥&lt;/span&gt;" style="text;html=1;align=center;verticalAlign=middle;resizable=0;points=[];autosize=1;fontSize=22;fontFamily=Helvetica;" parent="1" vertex="1">
          <mxGeometry x="6592.5" y="4115" width="50" height="30" as="geometry"/>
        </mxCell>
        <mxCell id="AtQHAulMX-eyT-m-HNgf-245" value="GA,GB是传输门，要按着不动，直到操作完，一但松开，电路则断开&lt;br&gt;RA,TR是边沿寄存器，点一下就可以了" style="text;html=1;align=center;verticalAlign=middle;resizable=0;points=[];autosize=1;fontSize=22;fontFamily=Helvetica;fontColor=#000000;" parent="1" vertex="1">
          <mxGeometry x="6165" y="3820" width="680" height="60" as="geometry"/>
        </mxCell>
        <mxCell id="AtQHAulMX-eyT-m-HNgf-246" value="&lt;span style=&quot;color: rgb(51 , 51 , 51) ; font-size: 26px&quot;&gt;一、加载：&lt;/span&gt;&lt;br style=&quot;color: rgb(51 , 51 , 51) ; font-size: 26px&quot;&gt;&lt;ol style=&quot;color: rgb(51 , 51 , 51) ; font-size: 26px&quot;&gt;&lt;li&gt;第一个加数10输入到&lt;span style=&quot;font-size: 25px ; letter-spacing: 5px ; white-space: normal&quot;&gt;①&lt;/span&gt;，按下Kga开关不松开，数据走到&lt;font style=&quot;font-size: 25px&quot;&gt;②&amp;nbsp;&lt;/font&gt;&lt;span style=&quot;font-size: 25px ; letter-spacing: 5px ; white-space: normal&quot;&gt;④&lt;/span&gt;&lt;/li&gt;&lt;li&gt;&lt;span style=&quot;font-size: 25px ; letter-spacing: 5px ; white-space: normal&quot;&gt;点击开发Kra，数据走到&lt;/span&gt;&lt;font style=&quot;font-size: 25px&quot;&gt;③&lt;/font&gt;&lt;/li&gt;&lt;li&gt;&lt;font style=&quot;font-size: 25px&quot;&gt;加法器相加得到20，由于Ktr没关按下，所以数据20被暂存在&lt;/font&gt;⑤&lt;/li&gt;&lt;li&gt;其中的目的是将10加载到加法器的第一个数据端&lt;/li&gt;&lt;/ol&gt;&lt;span style=&quot;color: rgb(51 , 51 , 51) ; font-size: 26px&quot;&gt;二、相加&lt;/span&gt;&lt;br style=&quot;color: rgb(51 , 51 , 51) ; font-size: 26px&quot;&gt;&lt;ol style=&quot;color: rgb(51 , 51 , 51) ; font-size: 26px&quot;&gt;&lt;li&gt;第二个加数8，输入到①，按下Kga开关不松开，数据走到&lt;font style=&quot;font-size: 25px&quot;&gt;②&amp;nbsp;&lt;/font&gt;&lt;span style=&quot;font-size: 25px ; letter-spacing: 5px ; white-space: normal&quot;&gt;④，由于此时Kra不会被按下，所不覆盖之前存储的数据10&lt;/span&gt;&lt;/li&gt;&lt;li&gt;&lt;span style=&quot;font-size: 25px ; letter-spacing: 5px ; white-space: normal&quot;&gt;加法器相加得到18，并将&lt;/span&gt;⑤的数据覆盖&lt;/li&gt;&lt;li&gt;按下寄存器Ktr开关，数据被寄存在⑥，相加操作完成&lt;/li&gt;&lt;/ol&gt;&lt;span style=&quot;color: rgb(51 , 51 , 51) ; font-size: 26px&quot;&gt;三、记忆&lt;/span&gt;&lt;br style=&quot;color: rgb(51 , 51 , 51) ; font-size: 26px&quot;&gt;&lt;ol style=&quot;color: rgb(51 , 51 , 51) ; font-size: 26px&quot;&gt;&lt;li&gt;当加相结果18被存储在⑥位置时，按下Kgb开关不松开，数据被传送到②位置&lt;/li&gt;&lt;li&gt;点击Kra开关，数据18被存储到③位置（数据也会到达&lt;span style=&quot;font-family: &amp;#34;verdana&amp;#34; , &amp;#34;arial&amp;#34; , &amp;#34;tahoma&amp;#34; ; font-size: 25px ; letter-spacing: 5px ; white-space: normal&quot;&gt;④，加法器也会相加，但这并不影响，下一个加数输入时会将&lt;/span&gt;&lt;span style=&quot;font-family: &amp;#34;verdana&amp;#34; , &amp;#34;arial&amp;#34; , &amp;#34;tahoma&amp;#34; ; font-size: 25px ; letter-spacing: 5px ; white-space: normal&quot;&gt;④的数据覆盖，我们的目的就是将相加结果临时保存在&lt;/span&gt;&lt;span style=&quot;font-family: &amp;#34;verdana&amp;#34; , &amp;#34;arial&amp;#34; , &amp;#34;tahoma&amp;#34; ; font-size: 25px ; letter-spacing: 5px ; white-space: normal&quot;&gt;③位置&lt;/span&gt;）&lt;/li&gt;&lt;/ol&gt;&lt;span style=&quot;color: rgb(51 , 51 , 51) ; font-size: 26px&quot;&gt;四、相加&lt;/span&gt;&lt;br style=&quot;color: rgb(51 , 51 , 51) ; font-size: 26px&quot;&gt;&lt;ol style=&quot;color: rgb(51 , 51 , 51) ; font-size: 26px&quot;&gt;&lt;li&gt;第三个加数6，输入到①，按下Kga开关不松开，数据走到&lt;font style=&quot;font-size: 25px&quot;&gt;②&amp;nbsp;&lt;/font&gt;&lt;span style=&quot;font-size: 25px ; letter-spacing: 5px ; white-space: normal&quot;&gt;④，&lt;/span&gt;由于此时Kra不会被按下，所不覆盖“记忆”的数据18&lt;/li&gt;&lt;li&gt;加法器相加6和18，得到24&lt;/li&gt;&lt;li&gt;按下寄存器Ktr开关，数据被寄存在⑥，相加操作完成&lt;/li&gt;&lt;/ol&gt;&lt;span style=&quot;color: rgb(51 , 51 , 51) ; font-size: 26px&quot;&gt;五、&amp;nbsp;如果有第4个数，则进行记忆+相加，记忆+相加，记忆+相加，&lt;/span&gt;" style="rounded=0;whiteSpace=wrap;html=1;fontFamily=Helvetica;fontSize=22;align=left;fillColor=#dae8fc;strokeColor=#6c8ebf;" parent="1" vertex="1">
          <mxGeometry x="5600" y="4880" width="1340" height="880" as="geometry"/>
        </mxCell>
        <mxCell id="AtQHAulMX-eyT-m-HNgf-247" value="第一个：加载，其实就是输入第一个加数（KGA-KRA）&lt;br&gt;第二个：相加，其实就是输入下一个加数，然后和上一个加数相加，并将结果存储起来（KGA-KTR）&lt;br&gt;第三个：记忆，其实就是将中间结果锁在加法器上面的输入端，以备参与下次运算（KGB-KRA）" style="rounded=0;whiteSpace=wrap;html=1;fontFamily=Helvetica;fontSize=22;align=left;fillColor=#d5e8d4;strokeColor=#82b366;" parent="1" vertex="1">
          <mxGeometry x="5600" y="4730" width="1080" height="110" as="geometry"/>
        </mxCell>
        <mxCell id="oLzCn9C1AA9DAn9jFC0Z-1" value="" style="rounded=0;whiteSpace=wrap;html=1;fillColor=none;" vertex="1" parent="1">
          <mxGeometry x="2560" y="3842.5" width="680" height="757.5" as="geometry"/>
        </mxCell>
        <mxCell id="oLzCn9C1AA9DAn9jFC0Z-2" value="" style="rounded=0;whiteSpace=wrap;html=1;fillColor=none;" vertex="1" parent="1">
          <mxGeometry x="3330" y="3850" width="870" height="830" as="geometry"/>
        </mxCell>
        <mxCell id="oLzCn9C1AA9DAn9jFC0Z-3" value="" style="rounded=0;whiteSpace=wrap;html=1;fillColor=none;" vertex="1" parent="1">
          <mxGeometry x="4241" y="3850" width="1119" height="870" as="geometry"/>
        </mxCell>
        <mxCell id="oLzCn9C1AA9DAn9jFC0Z-4" value="" style="rounded=0;whiteSpace=wrap;html=1;fillColor=none;" vertex="1" parent="1">
          <mxGeometry x="5440" y="3720" width="1560" height="2090" as="geometry"/>
        </mxCell>
      </root>
    </mxGraphModel>
  </diagram>
</mxfile>
